<svg xmlns="http://www.w3.org/2000/svg" height="1200" width="1600" version="1.1" xmlns:xlink="http://www.w3.org/1999/xlink" xmlns:svgjs="http://svgjs.com/svgjs"><rect fill="#ffffff" width="1600" height="1200"></rect><g><path d="M764.43 163.06C756.44 163.06 748.46 165.06 741.4 168.92 728.48 123.65 681.22 97.29 635.81 110.34 616.64 115.79 600 127.91 588.68 144.42 552.6 134.04 514.92 154.94 504.53 191.02 502.8 197.15 501.87 203.54 501.87 209.8 501.87 210.2 501.87 210.73 501.87 211.13H812.5C812.5 184.63 791.06 163.06 764.43 163.06Z" fill="#ffffff" opacity="1" stroke-width="4" stroke="none"></path><path d="M887.06 408.72C887.06 384.62 906.64 365.04 930.73 365.04 934.86 365.04 938.86 365.58 942.85 366.78 959.89 341.74 993.98 335.22 1019.01 352.26 1037.65 364.91 1046.57 387.68 1041.65 409.65H887.2C887.2 409.25 887.06 408.98 887.06 408.72Z" fill="#ffffff" opacity="1" stroke-width="4" stroke="none"></path><path d="M1091.84 378.63C1074.8 378.63 1060.95 392.47 1060.95 409.52H1122.73C1122.73 392.47 1108.88 378.63 1091.84 378.63Z" fill="#ffffff" opacity="1" stroke-width="4" stroke="none"></path></g><g><path d="M244.12 292.8H214.09V734.82H244.12V292.8Z" fill="#231f20" opacity="1" stroke-width="4" stroke="none"></path><path d="M214.09 263.87H244.22V319.34L214.09 338.7V263.87Z" fill="#000000" opacity="0.3" stroke-width="4" stroke="none"></path><path d="M214.09 407.55H244.22V463.03L214.09 482.38V407.55Z" fill="#000000" opacity="0.3" stroke-width="4" stroke="none"></path><path d="M275.75 195.21C265.27 168.77 242.63 150.41 215.88 149.81 180.06 149.01 150.03 180.94 146.94 222.05 97.85 216.66 72.1 250.19 76.49 294.89H364.45C372.24 265.65 370.44 233.03 349.79 212.37 333.92 196.41 311.07 187.33 275.75 195.21Z" fill="#290b65" opacity="1" stroke-width="4" stroke="none"></path><path d="M263.58 229.44C211.69 262.77 169.89 261.57 135.26 245.51 125.39 240.92 116.31 234.73 108.32 227.15 84.78 238.12 73.3 263.77 76.29 294.7H364.26C366.35 287.02 367.65 279.13 368.25 271.15 330.53 277.04 291.42 260.77 263.58 229.44Z" fill="#282828" opacity="0.3" stroke-width="4" stroke="none"></path><path d="M167.69 440.47C167.69 440.47 164.8 367.03 215.09 352.96 260.69 340.19 285.23 373.02 290.72 390.38 333.52 379.4 359.96 409.53 358.17 440.47H167.69Z" fill="#290b65" opacity="1" stroke-width="4" stroke="none"></path><path d="M167.69 440.47C167.69 440.47 166.29 404.55 182.66 378.2 189.54 393.97 203.11 405.84 219.58 410.53 254.2 420.41 280.44 407.54 280.44 407.54 280.44 407.54 312.37 436.47 354.48 418.02 357.37 425.1 358.67 432.78 358.27 440.47H167.69Z" fill="#282828" opacity="0.3" stroke-width="4" stroke="none"></path><path d="M146.94 221.96C154.72 222.96 165.7 228.95 169.69 232.94" stroke="#000000" stroke-width="4" stroke-linecap="round" stroke-linejoin="round" opacity="1" fill="none"></path><path d="M275.75 195.22C266.47 198.01 257.49 204 253.5 208.99" stroke="#000000" stroke-width="4" stroke-linecap="round" stroke-linejoin="round" opacity="1" fill="none"></path><path d="M290.72 390.38C278.45 394.57 274.45 398.56 274.45 398.56" stroke="#000000" stroke-width="4" stroke-linecap="round" stroke-linejoin="round" opacity="1" fill="none"></path><path d="M214.09 440.48H244.22" stroke="#000000" stroke-width="4" stroke-linecap="round" stroke-linejoin="round" opacity="1" fill="none"></path><path d="M214.09 294.8H244.22" stroke="#000000" stroke-width="4" stroke-linecap="round" stroke-linejoin="round" opacity="1" fill="none"></path></g><g><path d="M1371.22 852.51L1358.77 820.9C1358.77 820.81 1358.77 820.81 1358.77 820.71 1362.77 811.72 1362.77 798.27 1358.5 775.11 1358.5 775.02 1358.5 775.02 1358.5 774.93 1359.86 772.65 1391.02 725.32 1393.84 720.87 1393.93 720.69 1394.11 720.69 1394.29 720.87 1397.29 725.23 1430 773.02 1431.27 774.93 1431.27 774.93 1431.27 775.02 1431.27 775.11 1431.18 804.45 1427.45 832.71 1424.27 851.79 1424.27 851.88 1424.18 852.24 1424.09 852.24 1420.73 852.6 1371.31 852.33 1371.22 852.51Z" fill="#8c5426" opacity="1" stroke-width="4" stroke="none"></path><path d="M1242.21 854.16C1241.39 841.53 1236.94 822.72 1236.76 821.18 1236.76 821.09 1236.76 821.09 1236.76 821 1242.3 811 1242.66 796.19 1241.39 775.21 1241.39 775.12 1241.48 774.93 1241.57 774.93 1244.57 774.12 1280.82 767.76 1282.36 767.48H1282.46C1283.73 767.85 1311.8 774.93 1311.8 774.93 1311.07 806.1 1305.71 836.62 1302.44 852.07 1302.44 852.16 1302.35 852.25 1302.26 852.25 1297.81 852.88 1244.93 853.88 1244.84 854.16L1242.48 854.34C1242.3 854.34 1242.21 854.25 1242.21 854.16Z" fill="#8c5426" opacity="1" stroke-width="4" stroke="none"></path><path d="M1156.63 384.36C1156.63 384.27 1156.54 384.18 1156.45 384.18 1154.81 383.72 1146.81 380.18 1137.64 356.37V356.28C1125.37 340.93 1116.74 329.76 1118.65 327.03 1118.65 327.03 1118.65 326.94 1118.74 326.94 1122.56 323.4 1129.92 329.66 1135.64 335.66 1135.82 335.84 1136 335.66 1135.91 335.48 1131.73 327.58 1123.38 318.94 1126.1 312.04 1126.56 310.86 1127.37 309.95 1128.74 309.4 1128.83 309.4 1128.92 309.22 1128.92 309.13 1128.19 303.68 1132.46 301.23 1137.09 303.14 1137.18 303.14 1137.28 303.14 1137.37 303.14 1149.27 295.41 1164.62 325.49 1174.07 333.39 1174.25 333.48 1174.43 333.39 1174.52 333.21 1176.34 321.67 1177.89 311.68 1182.7 312.04 1184.61 312.04 1185.34 316.04 1186.34 321.49 1187.15 326.21 1188.24 332.03 1190.33 336.57 1194.42 345.29 1196.51 354.92 1196.42 364.37V364.46C1200.24 371.82 1204.14 378.45 1207.41 385.36 1207.5 385.45 1207.41 385.63 1207.32 385.72 1205.6 386.63 1193.88 392.44 1182.79 397.71 1173.25 402.16 1163.99 405.34 1162.35 405.89 1162.17 405.98 1162.08 405.89 1161.99 405.71 1161.26 403.71 1157.9 390.81 1156.63 384.36Z" fill="#8c5426" opacity="1" stroke-width="4" stroke="none"></path><path d="M1174.25 333.57L1173.16 340.57C1173.16 340.57 1167.44 352.01 1170.53 364.73" stroke="#000000" stroke-width="4" stroke-linecap="round" stroke-linejoin="round" opacity="1" fill="none"></path><path d="M1137.18 303.05C1148.09 314.58 1158.17 329.66 1158.17 329.66" stroke="#000000" stroke-width="4" stroke-linecap="round" stroke-linejoin="round" opacity="1" fill="none"></path><path d="M1129.01 309.31C1133.73 314.04 1149.36 335.75 1149.36 335.75" stroke="#000000" stroke-width="4" stroke-linecap="round" stroke-linejoin="round" opacity="1" fill="none"></path><path d="M1135.82 335.66L1141.18 342.57" stroke="#000000" stroke-width="4" stroke-linecap="round" stroke-linejoin="round" opacity="1" fill="none"></path><path d="M1307.35 346.12L1307.44 338.49C1307.44 338.3 1307.26 338.21 1307.08 338.21 1297.72 340.85 1285.54 337.67 1281.09 329.76 1273.82 317.41 1282.27 305.05 1282.36 291.43 1283.09 283.43 1284.09 273.8 1287.27 266.99 1287.82 265.71 1288.45 264.62 1289.18 263.63 1289.27 263.53 1289.27 263.53 1289.36 263.53 1299.44 263.63 1307.71 261.99 1324.16 261.99 1325.43 261.99 1329.52 268.44 1330.79 268.53 1349.69 269.53 1344.14 268.53 1363.77 282.16 1363.86 282.25 1363.86 282.25 1363.86 282.34 1363.59 291.61 1361.95 315.77 1360.77 334.58 1360.5 338.58 1360.31 342.48 1360.13 345.75V345.85C1360.13 347.3 1307.17 345.66 1307.35 346.12Z" fill="#8c5426" opacity="1" stroke-width="4" stroke="none"></path><path d="M1337.78 322.58C1337.69 322.49 1337.78 322.31 1337.87 322.21 1339.78 321.03 1355.86 310.77 1352.68 301.41 1350.14 292.32 1335.88 295.5 1331.33 297.32 1331.15 297.41 1330.97 297.32 1330.97 297.14 1329.79 291.05 1330.79 286.51 1332.79 281.79 1332.88 281.6 1332.7 281.42 1332.51 281.42 1320.25 283.33 1310.26 277.43 1316.89 266.52 1316.98 266.34 1316.8 266.07 1316.62 266.16 1307.26 269.43 1291.99 271.61 1287.45 266.98 1287.36 266.89 1287.36 266.8 1287.36 266.7 1291.09 243.81 1362.04 231.73 1364.04 281.88 1363.86 295.6 1362.86 316.31 1360.86 334.12 1360.86 334.21 1360.77 334.39 1360.59 334.39 1343.96 334.48 1338.51 324.21 1337.78 322.58Z" fill="#010005" opacity="1" stroke-width="4" stroke="none"></path><path d="M1307.44 338.12C1313.89 336.22 1320.07 333.76 1324.25 331.04" stroke="#000000" stroke-width="4" stroke-linecap="round" stroke-linejoin="round" opacity="1" fill="none"></path><path d="M1333.24 310.68L1340.05 307.95" stroke="#000000" stroke-width="4" stroke-linecap="round" stroke-linejoin="round" opacity="1" fill="none"></path><path d="M1298.35 299.87L1297.81 301.77C1297.45 302.86 1297.81 304.04 1298.63 304.77L1298.81 304.95" stroke="#000000" stroke-width="4" stroke-linecap="round" stroke-linejoin="round" opacity="1" fill="none"></path><path d="M1296.45 313.32C1297.63 314.23 1301.72 314.32 1303.99 311.5" stroke="#000000" stroke-width="4" stroke-linecap="round" stroke-linejoin="round" opacity="1" fill="none"></path><path d="M1309.89 298.5C1311.15 298.5 1312.16 297.49 1312.16 296.23 1312.16 294.98 1311.15 293.96 1309.89 293.96 1308.64 293.96 1307.62 294.98 1307.62 296.23 1307.62 297.49 1308.64 298.5 1309.89 298.5Z" fill="#010005" opacity="1" stroke-width="4" stroke="none"></path><path d="M1290.9 295.69C1292.16 295.69 1293.18 294.67 1293.18 293.42 1293.18 292.16 1292.16 291.14 1290.9 291.14 1289.65 291.14 1288.63 292.16 1288.63 293.42 1288.63 294.67 1289.65 295.69 1290.9 295.69Z" fill="#010005" opacity="1" stroke-width="4" stroke="none"></path><path d="M1203.42 852.33C1205.78 847.33 1211.41 842.97 1218.68 838.07 1222.4 835.16 1226.58 831.89 1231.4 827.8 1233.58 825.98 1235.21 823.8 1236.58 821.35 1236.67 821.26 1236.85 821.17 1236.94 821.26 1248.39 827.71 1256.2 835.8 1256.74 854.33 1256.74 854.97 1208.5 852.88 1203.6 852.78 1203.42 852.69 1203.32 852.51 1203.42 852.33Z" fill="#231f20" opacity="1" stroke-width="4" stroke="none"></path><path d="M1431.27 766.03C1430.91 742.68 1424.73 714.61 1418.64 694.53 1415.1 681.99 1412.1 671.18 1410.92 660.1 1405.47 595.59 1430.45 538.99 1387.84 474.13 1387.75 474.04 1387.75 474.04 1387.66 474.04H1316.98C1316.98 474.04 1316.98 474.04 1316.98 474.13 1305.26 474.13 1295.9 474.22 1294.72 474.22 1294.63 474.22 1294.54 474.31 1294.54 474.31 1275.46 507.65 1225.76 624.12 1239.12 738.32 1239.85 751.13 1240.85 762.58 1241.57 774.75 1241.57 774.93 1241.66 775.03 1241.84 775.03 1246.21 774.93 1307.44 775.21 1311.8 774.93 1311.98 774.93 1312.07 774.84 1312.07 774.66 1312.07 769.57 1312.25 766.39 1312.07 761.4 1311.53 743.59 1310.35 729.33 1308.35 715.15 1301.62 679.54 1311.89 654.92 1330.45 616.2 1330.79 615.31 1330.79 615.4 1330.94 616.54 1335.78 658.83 1342.05 701.62 1350.78 737.69 1353.41 749.77 1356.59 764.03 1358.68 774.75 1358.68 774.84 1358.77 774.93 1358.95 774.93H1431.36C1431.54 774.93 1431.63 774.84 1431.63 774.66 1431.36 771.75 1431.36 768.76 1431.27 766.03Z" fill="#94b4ff" opacity="1" stroke-width="4" stroke="none"></path><path d="M1312.8 605.94C1312.44 627.75 1313.71 646.73 1314.07 651.46 1314.07 651.73 1314.43 651.82 1314.53 651.55 1319.16 639.38 1325.13 627.21 1330.49 615.98 1330.42 615.21 1330.42 615.12 1330.36 613.47 1327.7 591.13 1325.34 567.33 1323.16 543.98 1323.16 543.71 1322.79 543.62 1322.7 543.8 1311.98 557.88 1313.16 585.68 1312.8 605.94Z" fill="#002885" opacity="0.2" stroke-width="4" stroke="none"></path><path d="M1370.04 473.75C1389.57 527.81 1381.57 610.58 1387.84 665.36 1394.11 720.51 1404.65 728.68 1408.1 774.29" stroke="#002885" stroke-width="4" stroke-linecap="round" stroke-linejoin="round" opacity="1" fill="none"></path><path d="M1304.53 474.39L1336.51 474.03C1337.24 474.12 1384.94 473.85 1387.66 474.12 1387.75 474.12 1387.84 474.12 1387.84 474.21 1400.38 491.29 1407.19 516 1408.1 519.45 1408.19 519.63 1408.01 519.82 1407.83 519.82 1402.02 518.63 1332.97 504.1 1304.35 474.94 1304.17 474.66 1304.26 474.39 1304.53 474.39Z" fill="#002885" opacity="0.2" stroke-width="4" stroke="none"></path><path d="M1326.06 852.33C1325.88 852.33 1325.79 852.06 1325.88 851.97 1331.7 843.43 1344.14 836.25 1353.41 827.71 1355.68 825.8 1357.32 823.62 1358.59 820.99 1358.68 820.9 1358.77 820.81 1358.95 820.9 1370.94 827.16 1378.94 838.52 1379.58 854.15 1379.58 854.69 1331.33 852.69 1326.06 852.33Z" fill="#231f20" opacity="1" stroke-width="4" stroke="none"></path><path d="M1323.07 542.8C1325.06 563.88 1327.43 588.68 1330.82 615.75" stroke="#002885" stroke-width="4" stroke-linecap="round" stroke-linejoin="round" opacity="1" fill="none"></path><path d="M1406.1 380.54C1388.93 356.37 1362.77 353.56 1359.95 353.29 1359.77 353.29 1359.68 353.2 1359.68 353.01 1359.77 351.47 1360.04 347.11 1360.13 346.02 1360.13 345.84 1360.04 345.75 1359.86 345.75H1307.62C1307.44 345.75 1307.35 345.84 1307.35 346.02L1307.26 354.38C1307.26 354.56 1307.17 354.65 1306.99 354.65 1306.71 354.65 1306.26 354.56 1305.62 354.56 1269.28 354.65 1247.84 389.63 1224.31 418.7 1224.22 418.88 1223.95 418.79 1223.86 418.7 1222.4 415.7 1215.95 402.62 1207.41 385.81 1207.32 385.72 1207.23 385.63 1207.14 385.72 1203.87 386.81 1164.89 404.44 1162.08 405.98 1161.99 406.07 1161.9 406.16 1161.99 406.25 1182.97 505.55 1236.76 495.83 1283.27 433.14 1283.36 432.96 1283.64 433.05 1283.73 433.23 1284.91 437.87 1293.63 471.57 1294.36 474.39 1294.36 474.48 1294.45 474.57 1294.63 474.57H1352.59C1352.77 474.57 1352.86 474.66 1352.86 474.84L1351.77 491.47C1351.77 491.56 1351.87 491.74 1351.96 491.74 1366.86 495.01 1380.39 496.83 1391.93 496.74 1482.15 498.19 1416.28 392.53 1406.1 380.54Z" fill="#290b65" opacity="1" stroke-width="4" stroke="none"></path><path d="M1278.82 412.26C1279 412.17 1279.09 412.26 1279.18 412.44 1279.73 414.98 1283.91 432.7 1283.55 432.7 1276.37 442.42 1268.56 450.69 1266.01 453.32 1265.83 453.5 1265.47 453.32 1265.56 453.05 1274.28 430.25 1273.46 414.35 1278.82 412.26Z" fill="#000000" opacity="0.2" stroke-width="4" stroke="none"></path><path d="M1286.63 515.92C1281.73 514.92 1285.82 506.29 1290.45 499.2 1290.63 498.93 1290.36 498.66 1290.09 498.84 1283.82 503.11 1276 509.2 1269.74 509.2 1267.28 509.29 1265.56 508.01 1263.83 506.47 1263.83 506.47 1263.74 506.38 1263.65 506.38 1259.02 506.29 1258.02 502.84 1259.02 498.66 1259.02 498.57 1259.02 498.57 1259.02 498.47 1255.75 490.39 1266.47 479.76 1275.55 471.4 1283.45 464.59 1291.81 459.05 1297.81 456.87 1312.89 451.23 1338.15 449.69 1354.59 449.6 1354.77 449.6 1354.86 449.69 1354.86 449.87 1355.05 454.05 1352.96 488.39 1351.87 491.3 1351.87 491.39 1351.68 491.48 1351.59 491.48 1346.87 490.48 1340.87 488.94 1335.51 487.48 1335.42 487.48 1335.33 487.48 1335.33 487.48 1333.97 488.48 1323.25 492.57 1308.17 495.84 1308.08 495.84 1308.08 495.93 1307.98 495.93 1298.9 508.01 1289.36 515.83 1286.63 515.92Z" fill="#8c5426" opacity="1" stroke-width="4" stroke="none"></path><path d="M1307.62 338.03C1308.89 337.67 1317.34 334.94 1324.34 330.95 1324.61 330.76 1324.88 331.13 1324.7 331.31L1307.8 351.11C1307.62 351.3 1307.35 351.21 1307.35 350.93L1307.53 338.21C1307.44 338.21 1307.53 338.12 1307.62 338.03Z" fill="#000000" opacity="0.2" stroke-width="4" stroke="none"></path><path d="M1325.61 852.42C1325.7 852.33 1325.7 852.33 1325.79 852.33L1424.09 851.88C1424.27 851.88 1424.36 852.06 1424.36 852.15 1423.18 858.6 1422.37 862.69 1421.91 864.96 1421.91 865.05 1421.82 865.14 1421.64 865.14 1416.82 865.14 1327.88 865.32 1322.52 865.32 1322.34 865.32 1322.25 865.23 1322.25 865.05 1322.25 863.69 1322.34 855.96 1325.61 852.42Z" fill="#000000" opacity="1" stroke-width="4" stroke="none"></path><path d="M1203.32 852.69L1302.08 852.24C1302.26 852.24 1302.35 852.42 1302.35 852.51 1301.08 859.14 1299.9 863.78 1299.63 864.87 1299.63 864.96 1299.54 865.05 1299.35 865.05 1294.18 865.05 1205.96 865.32 1200.24 865.32 1200.05 865.32 1199.96 865.23 1199.96 865.05 1199.87 863.69 1199.78 856.6 1203.05 852.69 1203.23 852.69 1203.32 852.69 1203.32 852.69Z" fill="#000000" opacity="1" stroke-width="4" stroke="none"></path><path d="M1363.86 449.68L1380.3 449.86C1380.48 449.86 1380.57 449.68 1380.57 449.5L1367.67 416.7C1367.67 416.61 1367.49 416.52 1367.4 416.52 1357.77 416.79 1371.76 437.6 1363.59 449.32 1363.59 449.41 1363.68 449.68 1363.86 449.68Z" fill="#000000" opacity="0.2" stroke-width="4" stroke="none"></path><path d="M1224.31 418.71L1230.76 410.53" stroke="#000000" stroke-width="4" stroke-linecap="round" stroke-linejoin="round" opacity="1" fill="none"></path><path d="M1283.64 432.96L1279.18 412.43" stroke="#000000" stroke-width="4" stroke-linecap="round" stroke-linejoin="round" opacity="1" fill="none"></path><path d="M1360.13 353.3C1368.04 354.39 1366.4 354.57 1371.94 355.84" stroke="#000000" stroke-width="4" stroke-linecap="round" stroke-linejoin="round" opacity="1" fill="none"></path><path d="M1367.76 416.7L1380.76 449.86" stroke="#000000" stroke-width="4" stroke-linecap="round" stroke-linejoin="round" opacity="1" fill="none"></path><path d="M1354.77 449.68C1363.59 449.68 1378.76 449.86 1389.57 450.5" stroke="#000000" stroke-width="4" stroke-linecap="round" stroke-linejoin="round" opacity="1" fill="none"></path><path d="M1259.02 498.57C1264.47 492.48 1276.91 481.03 1285.73 474.94" stroke="#000000" stroke-width="4" stroke-linecap="round" stroke-linejoin="round" opacity="1" fill="none"></path><path d="M1264.01 506.2C1268.1 502.11 1281.64 490.57 1292.54 483.12" stroke="#000000" stroke-width="4" stroke-linecap="round" stroke-linejoin="round" opacity="1" fill="none"></path><path d="M1291.18 498.1L1299.35 491.2" stroke="#000000" stroke-width="4" stroke-linecap="round" stroke-linejoin="round" opacity="1" fill="none"></path></g><g><path d="M596.19 686.3H261.87V869.42H596.19V686.3Z" fill="#000000" opacity="1" stroke-width="4" stroke="none"></path><path d="M1225.15 686.3H890.83V869.42H1225.15V686.3Z" fill="#000000" opacity="1" stroke-width="4" stroke="none"></path><path d="M206.95 799.07C227.65 799.07 244.44 782.29 244.44 761.58 244.44 740.88 227.65 724.1 206.95 724.1 186.25 724.1 169.47 740.88 169.47 761.58 169.47 782.29 186.25 799.07 206.95 799.07Z" fill="#c25a00" opacity="1" stroke-width="4" stroke="none"></path><path d="M1393.47 799.07C1414.17 799.07 1430.95 782.29 1430.95 761.58 1430.95 740.88 1414.17 724.1 1393.47 724.1 1372.76 724.1 1355.98 740.88 1355.98 761.58 1355.98 782.29 1372.76 799.07 1393.47 799.07Z" fill="#c25a00" opacity="1" stroke-width="4" stroke="none"></path><path d="M209.05 869.42C194.14 869.42 182.07 857.35 182.07 842.44 182.07 827.53 194.14 815.45 209.05 815.45H219.97L256.83 819.65 282.45 833.41V833.51C280.87 845.38 280.77 857.35 282.24 869.21V869.42H209.05Z" fill="#231f20" opacity="1" stroke-width="4" stroke="none"></path><path d="M1188.5 869.42V869.21C1189.97 857.35 1189.87 845.38 1188.4 833.51V833.3L1291.09 815.45H1403.97C1418.88 815.45 1430.95 827.53 1430.95 842.44 1430.95 857.35 1418.88 869.42 1403.97 869.42H1188.5Z" fill="#231f20" opacity="1" stroke-width="4" stroke="none"></path><path d="M563.22 869.42V869.21C564.59 857.35 564.59 845.38 563.01 833.51V833.41L714.63 765.05 907.73 833.41V833.62C906.16 845.48 906.16 857.45 907.63 869.32V869.53L563.22 869.42Z" fill="#231f20" opacity="1" stroke-width="4" stroke="none"></path><path d="M1188.4 833.72V833.51C1180.1 769.99 1129.91 719.79 1066.39 711.5 1060.19 710.66 1054 710.24 1047.8 710.24 977.03 710.24 916.76 763.16 907.63 833.41V833.62H563.01V833.41C554.51 770.51 504.63 720.63 441.63 712.13 435.33 711.29 428.92 710.87 422.52 710.87 388.6 710.87 355.63 723.15 329.91 745.52 303.87 768.1 287.07 799.39 282.45 833.51V833.72H228.69L228.58 833.62C207.16 795.4 199.5 750.66 207.16 707.51 215.56 657.84 239.5 606.08 274.57 561.77 314.89 510.74 369.81 469.26 433.33 441.86 449.82 434.72 467.36 431.15 485.42 431.15H817.33C845.68 431.15 872.56 442.17 892.72 462.02L1022.39 589.7 1281.33 621.51C1305.48 624.45 1324.69 642.51 1329.1 666.45L1354.2 688.4C1378.03 692.07 1395.25 712.23 1395.25 736.28V833.62L1188.4 833.72Z" fill="#ff0000" opacity="1" stroke-width="4" stroke="none"></path><path d="M1395.04 798.86V736.38C1395.04 732.29 1394.52 728.3 1393.57 724.31" stroke="#000000" stroke-width="4" stroke-linecap="round" stroke-linejoin="round" opacity="1" fill="none"></path><path d="M205.17 724.31C202.96 749.51 205.9 774.81 213.67 798.86" stroke="#000000" stroke-width="4" stroke-linecap="round" stroke-linejoin="round" opacity="1" fill="none"></path><path d="M227.32 640.52L227.43 640.2C257.67 570.27 313.21 508.64 383.98 466.85H428.92C432.07 466.85 435.12 468 437.43 470.1 442.68 474.83 443.1 482.91 438.37 488.16L326.65 613.11C311.01 630.54 288.64 640.52 265.23 640.52H227.32V640.52Z" fill="#231f20" opacity="1" stroke-width="4" stroke="none"></path><path d="M737.52 640.52V466.85H817.43C836.33 466.85 854.18 474.2 867.62 487.53L994.67 611.12C999.82 616.05 1001.29 623.3 998.56 629.81 995.93 636.42 989.84 640.52 982.7 640.52H737.52Z" fill="#231f20" opacity="1" stroke-width="4" stroke="none"></path><path d="M998.03 630.12C997.19 628.13 995.93 626.45 994.36 624.98L867.31 501.39C853.97 488.16 836.23 480.92 817.43 480.92H737.52V466.85H817.43C836.33 466.85 854.18 474.2 867.62 487.53L994.67 611.12C999.82 616.05 1001.29 623.72 998.45 630.23L998.24 630.65 998.03 630.12Z" fill="#000000" opacity="0.2" stroke-width="4" stroke="none"></path><path d="M441.73 640.52C429.97 640.52 419.58 634.01 414.33 623.51 409.18 613.01 410.34 600.72 417.48 591.38L488.14 499.4C503.79 479.03 528.57 466.85 554.3 466.85H702.24V640.52H441.73Z" fill="#231f20" opacity="1" stroke-width="4" stroke="none"></path><path d="M412.02 617.31C409.71 608.39 411.81 598.73 417.48 591.38L488.15 499.4C503.79 479.03 528.57 466.85 554.3 466.85H702.24V481.97H554.3C528.68 481.97 504.11 494.04 488.46 514.41L417.79 606.39C415.27 609.65 413.49 613.32 412.44 617.31H412.02V617.31Z" fill="#000000" opacity="0.2" stroke-width="4" stroke="none"></path><path d="M496.76 690.92C489.41 690.92 483.42 684.93 483.42 677.58 483.42 670.23 489.41 664.25 496.76 664.25H534.56C541.91 664.25 547.89 670.23 547.89 677.58 547.89 684.93 541.91 690.92 534.56 690.92H496.76Z" fill="#231f20" opacity="1" stroke-width="4" stroke="none"></path><path d="M485.42 684.51C484.16 682.41 483.42 680 483.42 677.58 483.42 670.23 489.51 664.25 496.86 664.25H534.66C537.18 664.25 539.49 664.88 541.59 666.24 547.89 670.13 549.78 678.32 546 684.51L545.79 684.83 545.58 684.51C543.27 680.73 539.07 678.32 534.56 678.32H496.76C492.24 678.32 488.04 680.73 485.73 684.51L485.52 684.72 485.42 684.51Z" fill="#000000" opacity="0.2" stroke-width="4" stroke="none"></path><path d="M789.71 690.92C782.36 690.92 776.37 684.93 776.37 677.58 776.37 670.23 782.36 664.25 789.71 664.25H827.51C834.86 664.25 840.85 670.23 840.85 677.58 840.85 684.93 834.86 690.92 827.51 690.92H789.71Z" fill="#231f20" opacity="1" stroke-width="4" stroke="none"></path><path d="M778.26 684.51C777 682.41 776.37 680 776.37 677.58 776.37 670.23 782.36 664.25 789.71 664.25H827.51C830.03 664.25 832.34 664.88 834.44 666.24 840.74 670.13 842.63 678.32 838.85 684.51L838.64 684.83 838.43 684.51C836.12 680.73 831.92 678.32 827.41 678.32H789.6C785.09 678.32 780.89 680.73 778.58 684.51L778.37 684.72 778.26 684.51Z" fill="#000000" opacity="0.2" stroke-width="4" stroke="none"></path><path d="M1312.62 760.22C1305.27 760.22 1299.28 754.23 1299.28 746.88 1299.28 739.53 1305.27 733.55 1312.62 733.55H1333.62C1340.97 733.55 1346.95 739.53 1346.95 746.88 1346.95 754.23 1340.97 760.22 1333.62 760.22H1312.62Z" fill="#000000" opacity="1" stroke-width="4" stroke="none"></path><path d="M1312.62 750.77C1305.27 750.77 1299.28 744.78 1299.28 737.43 1299.28 730.08 1305.27 724.1 1312.62 724.1H1333.62C1340.97 724.1 1346.95 730.08 1346.95 737.43 1346.95 744.78 1340.97 750.77 1333.62 750.77H1312.62Z" fill="#c25a00" opacity="1" stroke-width="4" stroke="none"></path><path d="M422.73 962.87C483.74 962.87 533.19 913.42 533.19 852.41 533.19 791.4 483.74 741.95 422.73 741.95 361.72 741.95 312.27 791.4 312.27 852.41 312.27 913.42 361.72 962.87 422.73 962.87Z" fill="#231f20" opacity="1" stroke-width="4" stroke="none"></path><path d="M422.73 885.17C440.82 885.17 455.49 870.5 455.49 852.41 455.49 834.32 440.82 819.65 422.73 819.65 404.64 819.65 389.97 834.32 389.97 852.41 389.97 870.5 404.64 885.17 422.73 885.17Z" fill="#000000" opacity="1" stroke-width="4" stroke="none"></path><path d="M364.98 686.51C380.64 686.51 393.33 673.82 393.33 658.16 393.33 642.5 380.64 629.81 364.98 629.81 349.32 629.81 336.63 642.5 336.63 658.16 336.63 673.82 349.32 686.51 364.98 686.51Z" fill="#231f20" opacity="1" stroke-width="4" stroke="none"></path><path d="M1126.1 929.98C1169.25 886.84 1169.25 816.9 1126.1 773.77 1082.97 730.63 1013.03 730.63 969.89 773.77 926.76 816.9 926.76 886.84 969.89 929.98 1013.03 973.12 1082.97 973.12 1126.1 929.98Z" fill="#231f20" opacity="1" stroke-width="4" stroke="none"></path><path d="M1048.01 884.65C1066.1 884.65 1080.77 869.98 1080.77 851.89 1080.77 833.79 1066.1 819.13 1048.01 819.13 1029.92 819.13 1015.25 833.79 1015.25 851.89 1015.25 869.98 1029.92 884.65 1048.01 884.65Z" fill="#000000" opacity="1" stroke-width="4" stroke="none"></path><path d="M719.88 469.15V833.51" stroke="#000000" stroke-width="4" stroke-linecap="round" stroke-linejoin="round" opacity="1" fill="none"></path><path d="M216.93 833.51H282.03" stroke="#000000" stroke-width="4" stroke-linecap="round" stroke-linejoin="round" opacity="1" fill="none"></path><path d="M562.38 833.51H907.84" stroke="#000000" stroke-width="4" stroke-linecap="round" stroke-linejoin="round" opacity="1" fill="none"></path><path d="M1188.19 833.51H1403.44" stroke="#000000" stroke-width="4" stroke-linecap="round" stroke-linejoin="round" opacity="1" fill="none"></path><path d="M702.03 467.05H737.73" stroke="#000000" stroke-width="4" stroke-linecap="round" stroke-linejoin="round" opacity="1" fill="none"></path><path d="M214.83 674.96H246.33" stroke="#000000" stroke-width="4" stroke-linecap="round" stroke-linejoin="round" opacity="1" fill="none"></path><path d="M433.02 493.83C432.81 487.22 427.35 481.97 420.63 481.97H360.36L360.88 481.55C368.23 476.51 376 471.57 383.98 466.85H428.93C432.08 466.85 435.12 468 437.43 470.1 442.68 474.83 443.1 482.91 438.38 488.16L432.81 494.36 433.02 493.83Z" fill="#000000" opacity="0.2" stroke-width="4" stroke="none"></path><path d="M1141.99 666.56L1354.09 688.61" stroke="#000000" stroke-width="4" stroke-linecap="round" stroke-linejoin="round" opacity="1" fill="none"></path><path d="M1328.05 663.83L1321.96 658.68C1313.46 651.44 1302.96 646.82 1291.93 645.24L1276.92 643.04" stroke="#000000" stroke-width="4" stroke-linecap="round" stroke-linejoin="round" opacity="1" fill="none"></path></g><g><path d="M771.69 969.59C773.17 985.89 781.33 1051.12 785.03 1073.35L847.96 1071.65C847.96 1071.65 851.07 1064.53 839.14 1056.82 836.92 1055.34 835.8 1052.6 834.32 1050.97 827.58 1043.48 828.32 1034.59 829.5 1026.66 830.32 1021.1 834.17 1005.09 837.21 992.41 839.51 983.08 841.36 975.51 841.36 975.51L771.69 969.59Z" fill="#8c5426" opacity="1" stroke-width="4" stroke="none"></path><path d="M771.69 969.51C772.43 977.81 774.95 998.94 777.69 1020.58L837.21 992.41C839.51 983 841.29 975.44 841.29 975.44L771.69 969.51Z" fill="#000000" opacity="0.2" stroke-width="4" stroke="none"></path><path d="M839.88 1055.56C837.88 1054.23 835.95 1052.75 834.32 1050.97 826.91 1054.82 822.61 1060.68 820.83 1065.94H801.78C797.11 1054.45 788.89 1049.78 781.4 1048.52 782.81 1058.68 784.07 1067.5 785.03 1073.35H850.03C850.11 1073.35 850.26 1073.28 850.26 1073.2 850.41 1071.8 850.85 1062.68 839.88 1055.56Z" fill="#231f20" opacity="1" stroke-width="4" stroke="none"></path><path d="M733.89 969.59C734.48 976.48 736.33 992.19 738.56 1009.76 740.19 1022.65 741.97 1036.52 743.6 1048.52 745.82 1058.97 749.68 1071.2 749.68 1071.2L810.53 1072.02C810.53 1072.02 812.46 1065.05 800.52 1057.34 798.22 1055.86 798 1052.6 796.52 1050.97 789.78 1043.56 790.52 1034.59 791.7 1026.66 793.18 1017.02 803.56 975.51 803.56 975.51L733.89 969.59Z" fill="#8c5426" opacity="1" stroke-width="4" stroke="none"></path><path d="M733.89 969.51C734.48 976.4 736.33 992.19 738.56 1009.76L803.56 975.44 733.89 969.51Z" fill="#000000" opacity="0.2" stroke-width="4" stroke="none"></path><path d="M802.08 1055.56C800.08 1054.23 798.15 1052.75 796.52 1050.97 789.11 1054.82 784.81 1060.68 783.03 1065.94H763.98C759.31 1054.45 751.08 1049.78 743.6 1048.52 745.01 1058.53 746.27 1067.28 747.16 1073.13 747.16 1073.28 747.3 1073.35 747.45 1073.35H811.94C812.23 1073.35 812.46 1073.13 812.53 1072.83 812.6 1070.68 812.38 1062.23 802.08 1055.56Z" fill="#231f20" opacity="1" stroke-width="4" stroke="none"></path><path d="M831.88 723.29C831.65 720.54 825.87 718.47 824.91 718.17 824.83 718.17 824.76 718.1 824.76 717.95 824.69 715.43 822.76 689.63 808.01 680.15 800.89 675.03 790.44 672.07 776.21 675.18 752.34 680.37 746.34 695.12 745.75 709.65 745.01 726.69 750.2 740.56 753.9 749.45L754.72 767.31 797.71 777.69 798.37 762.94C814.75 766.42 822.17 759.75 824.17 755.68 827.65 748.78 826.98 738.55 826.24 730.33 826.24 730.18 826.32 730.03 826.46 729.96 827.5 729.21 832.1 726.47 831.88 723.29Z" fill="#8c5426" opacity="1" stroke-width="4" stroke="none"></path><path d="M708.1 985.82C708.1 985.89 708.1 985.89 708.17 985.89H770.13L865.9 985.82C865.97 985.82 865.97 985.82 865.97 985.74 863.3 938.6 855.74 898.95 845.44 866.56H721.88C714.47 900.51 708.32 941.64 708.1 985.82Z" fill="#94b4ff" opacity="1" stroke-width="4" stroke="none"></path><path d="M813.57 721.28C814.83 721.28 815.87 720.25 815.87 718.99 815.87 717.72 814.83 716.69 813.57 716.69 812.3 716.69 811.27 717.72 811.27 718.99 811.27 720.25 812.3 721.28 813.57 721.28Z" fill="#000000" opacity="1" stroke-width="4" stroke="none"></path><path d="M809.34 677.03C809.19 677.18 808.9 677.26 808.68 677.11 801.49 671.99 787.7 667.84 773.69 670.88 766.72 672.44 761.24 675.11 761.49 674.3 761.09 665.4 755.31 648.42 741.52 636.49 724.25 621.52 700.91 620.11 689.42 633.3 677.93 646.57 682.67 669.4 699.94 684.45 714.84 697.34 734.19 700.16 743.71 698.28 744.12 698.01 743.08 704.01 742.78 709.42 742.04 726.47 750.2 740.56 753.9 749.45 753.9 749.45 764.28 745.97 769.69 737.07 769.99 736.55 769.91 735.89 769.47 735.44 766.06 732.55 753.16 720.47 762.87 710.17 772.95 699.42 785.33 714.39 788.22 718.25 788.59 718.76 789.26 718.99 789.85 718.84 794.22 717.65 811.49 712.46 823.13 702.83 827.95 698.9 831.73 694.16 833.36 688.67 837.8 672.51 818.83 667.99 809.34 677.03Z" fill="#010508" opacity="1" stroke-width="4" stroke="none"></path><path d="M779.92 922.15C781.03 912.59 782.44 901.84 784.66 889.46 788.59 867.52 754.64 832.69 748.27 826.98 747.75 826.53 747.01 826.68 746.79 827.28 737.37 848.84 737.82 877.01 739.67 889.98 741.97 906.88 747.6 925.19 761.31 938.9L779.92 922.15Z" fill="#171718" opacity="0.2" stroke-width="4" stroke="none"></path><path d="M806.53 942.9C808.82 951.2 812.75 956.17 813.64 957.28 813.79 957.43 813.79 957.65 813.72 957.8 812.16 962.91 804.23 961.73 802.89 961.51 802.82 961.51 802.67 961.58 802.67 961.65 801.12 965.21 795.41 967.29 791.78 962.4 791.7 962.32 791.55 962.25 791.41 962.32 784.44 966.99 780.81 961.21 779.84 960.1 779.77 960.02 779.69 959.95 779.55 960.02 766.35 963.43 768.28 933.34 768.58 930.3L801.19 921.41C802.82 927.34 804.3 934.75 806.53 942.9Z" fill="#8c5426" opacity="1" stroke-width="4" stroke="none"></path><path d="M845.44 866.56C832.32 825.27 814.9 795.85 797.93 777.99 797.78 777.84 797.71 777.62 797.71 777.39L798.15 767.31H749.23C748.94 767.31 748.71 767.53 748.71 767.83V776.95C748.71 776.95 733.67 812.67 721.88 866.63L747.23 870.71C747.23 870.78 747.23 870.93 747.23 871.01 749.9 894.65 754.27 918 760.28 941.05 760.42 941.72 761.09 942.16 761.83 942.01L804.23 934.08C804.23 934.08 804.3 934.08 804.3 934.01 802 917.48 798.52 899.91 796.22 874.49L845.44 866.56Z" fill="#ff6e00" opacity="1" stroke-width="4" stroke="none"></path><path d="M798.37 762.87L797.85 773.83C797.85 773.98 797.71 773.98 797.63 773.91L788.29 758.49C788.22 758.34 788.37 758.27 788.51 758.34 792.07 760.57 793.78 761.31 798.37 762.87Z" fill="#000000" opacity="0.2" stroke-width="4" stroke="none"></path><path d="M812.53 1071.65C812.68 1069.65 812.6 1061.57 802.08 1054.82 789.48 1046.67 790.22 1035.55 791.7 1025.92 792.67 1019.54 797.56 999.16 800.74 986.11" stroke="#000000" stroke-width="4" stroke-linecap="round" stroke-linejoin="round" opacity="1" fill="none"></path><path d="M817.87 737.89C816.53 738.48 811.79 738.33 810.45 734.4" stroke="#000000" stroke-width="4" stroke-linecap="round" stroke-linejoin="round" opacity="1" fill="none"></path><path d="M798.37 762.87C794.82 761.75 791.63 760.86 788.51 758.34" stroke="#000000" stroke-width="4" stroke-linecap="round" stroke-linejoin="round" opacity="1" fill="none"></path><path d="M778.36 726.47L772.43 720.54" stroke="#000000" stroke-width="4" stroke-linecap="round" stroke-linejoin="round" opacity="1" fill="none"></path><path d="M799.11 953.28C800.15 955.8 801.41 959.06 802.82 961.43" stroke="#000000" stroke-width="4" stroke-linecap="round" stroke-linejoin="round" opacity="1" fill="none"></path><path d="M788.74 955.5C789.26 957.58 790.74 960.25 791.7 962.17" stroke="#000000" stroke-width="4" stroke-linecap="round" stroke-linejoin="round" opacity="1" fill="none"></path><path d="M776.88 953.28C777.4 955.35 778.88 958.02 779.84 959.95" stroke="#000000" stroke-width="4" stroke-linecap="round" stroke-linejoin="round" opacity="1" fill="none"></path><path d="M744.64 832.61C744.64 832.61 745.67 852.85 747.16 870.64" stroke="#000000" stroke-width="4" stroke-linecap="round" stroke-linejoin="round" opacity="1" fill="none"></path><path d="M794.96 856.18L796.22 874.42" stroke="#000000" stroke-width="4" stroke-linecap="round" stroke-linejoin="round" opacity="1" fill="none"></path></g><g><path d="M508.71 432.95C506.06 419.1 502.18 398.62 500.45 388.84 497.8 372.74 490.77 347.06 506.87 331.68 521.14 318.54 546.81 314.87 565.46 322.51 583.59 329.34 588.38 345.33 595.51 366.52 595.51 366.63 595.61 366.73 595.72 366.73 597.24 366.93 603.97 367.85 604.68 371.01 605.6 374.37 601.52 379.77 600.61 380.99 600.5 381.09 600.5 381.2 600.5 381.3 609.17 407.79 605.09 426.03 579.01 426.84 575.24 426.84 571.77 426.33 568.82 425.31 568.61 425.21 568.41 425.41 568.41 425.62 568.61 427.04 569.33 431.32 569.43 432.44 569.43 432.55 569.33 432.75 569.23 432.75L546.61 438.25H546.51L508.71 432.95Z" fill="#8c5426" opacity="1" stroke-width="4" stroke="none"></path><path d="M343.04 1011.07C341.41 1011.07 339.98 1010.05 339.37 1008.52L334.68 995.57C332.34 989.05 327.25 983.65 320.83 980.8L297.09 970.61V970.3C299.64 959.3 301.98 948.5 305.95 938.11 305.95 938 306.05 937.9 306.16 937.9 308.4 937.6 332.14 935.15 353.33 944.32 359.65 947.07 385.32 971.73 387.46 973.77 387.56 973.87 387.56 973.97 387.56 974.07 384.91 979.37 382.47 983.24 381.04 986.2 380.43 987.32 360.77 977.54 360.77 977.74 355.57 975.29 349.25 979.06 348.85 984.77L346.81 1007.5C346.81 1009.64 345.08 1011.27 343.04 1011.07Z" fill="#8c5426" opacity="1" stroke-width="4" stroke="none"></path><path d="M545.28 1042.23C544.16 1042.23 543.24 1041.83 542.43 1041.01L532.95 1031.03C528.17 1025.93 521.44 1023.59 514.41 1023.59 514.41 1023.59 488.33 1023.38 485.58 1023.18 485.48 1023.18 485.37 1023.08 485.27 1022.98 483.74 1010.85 482.32 1000.77 481.81 988.13 481.81 988.03 481.91 987.83 482.01 987.83 485.27 987.01 523.89 981.1 525.31 980.9H525.41C526.84 981.1 566.27 987.32 569.94 987.83 570.14 987.83 570.24 988.03 570.14 988.13 569.23 996.18 568.72 1001.58 568.72 1003.82 568.72 1003.92 568.61 1004.03 568.51 1004.13 564.64 1005.55 549.46 1004.23 549.56 1004.33 546.4 1004.23 543.45 1006.17 542.02 1009.02 541 1011.06 540.8 1013.4 541.51 1015.54L548.75 1037.14C549.87 1039.58 547.93 1042.23 545.28 1042.23Z" fill="#8c5426" opacity="1" stroke-width="4" stroke="none"></path><path d="M712.99 725.98C708.61 725.47 703.51 716.5 697.09 705.19 690.37 693.48 682.12 678.7 671.52 668.11 671.42 668.01 671.42 667.8 671.52 667.7 674.07 664.85 708.91 634.69 711.87 631.84 711.97 631.73 712.17 631.73 712.27 631.84 726.33 647.22 736.52 660.98 742.02 669.33 748.14 679.93 764.95 707.94 754.25 717.01 754.15 717.01 754.15 717.11 754.15 717.22 753.84 720.48 752.21 724.76 746.92 724.76 745.39 724.76 743.86 724.45 741.92 723.74 741.72 723.74 741.72 723.74 741.62 723.84 731.33 730.46 718.39 712.63 713.7 706.72 713.39 706.52 713.19 706.82 713.39 707.13 714.41 711.82 718.08 724.35 712.99 725.98Z" fill="#8c5426" opacity="1" stroke-width="4" stroke="none"></path><path d="M661.84 681.66C621.8 646.61 596.12 596.48 591.95 588.02 591.84 587.82 591.44 587.82 591.44 588.13L587.06 605.65C587.06 605.75 586.95 605.85 586.75 605.85L493.01 605.45C492.91 605.45 492.91 605.45 492.81 605.55 491.28 607.08 471.01 629.29 468.97 630.92 468.87 631.02 468.77 631.02 468.66 630.92 411.51 610.03 433.92 550.12 451.34 503.05 459.49 482.47 468.26 465.66 474.06 459.24 486.8 445.28 506.36 441.41 509.72 440.9 509.93 440.9 510.03 440.7 509.93 440.6 509.32 437.95 508.91 435.5 508.4 433.06 508.4 432.85 508.5 432.75 508.6 432.75 513.09 432.34 565.05 432.75 569.12 432.65 569.23 432.65 569.43 432.75 569.43 432.85 569.63 434.48 570.96 442.94 571.16 444.26 571.16 444.37 571.26 444.47 571.37 444.47 575.44 445.08 612.22 451.7 629.95 500.5L657.56 572.13C657.56 572.13 657.56 572.23 657.66 572.23 659.19 573.86 707.28 626.64 711.56 631.33 711.66 631.43 711.66 631.63 711.56 631.73 708.81 635.1 665.3 678.7 661.94 681.56 662.15 681.76 661.94 681.66 661.84 681.66Z" fill="#94b4ff" opacity="1" stroke-width="4" stroke="none"></path><path d="M468.87 631.02C461.12 628.37 453.79 623.99 448.59 619.51 448.49 619.41 448.49 619.2 448.59 619.1 450.53 617.57 462.45 607.49 464.38 587.21 462.75 543.4 474.78 539.53 476.71 539.12 476.92 539.12 477.02 539.22 477.02 539.32L490.47 605.04C490.47 605.14 490.47 605.24 490.37 605.24 488.84 606.87 470.91 629.19 468.97 630.92 469.07 631.02 468.97 631.02 468.87 631.02Z" fill="#12234a" opacity="0.2" stroke-width="4" stroke="none"></path><path d="M557.61 605.35C576.15 590.27 567.49 560.01 578.6 556.85 578.7 556.85 578.9 556.85 578.9 557.05L591.54 587.31C591.54 587.41 591.54 587.41 591.54 587.52L587.06 605.75C587.06 605.85 586.95 605.96 586.75 605.96H557.71C557.51 605.85 557.41 605.55 557.61 605.35Z" fill="#12234a" opacity="0.2" stroke-width="4" stroke="none"></path><path d="M557.92 420.52L568.41 425.01C568.51 425.01 568.61 425.11 568.61 425.21L570.65 438.76C570.65 439.07 570.35 439.27 570.14 438.97L557.81 420.73C557.61 420.63 557.81 420.52 557.92 420.52Z" fill="#000000" opacity="0.2" stroke-width="4" stroke="none"></path><path d="M438.91 539.63C398.97 538.92 388.38 492.35 421.29 474.52 421.39 474.42 421.49 474.22 421.39 474.12 408.76 455.67 406.92 433.67 416.7 415.23 428.93 390.26 461.23 380.99 488.33 388.94 488.53 389.04 488.74 388.84 488.74 388.63 488.43 373.66 486.49 344.92 506.46 329.54 530 312.42 571.57 311.81 586.04 341.66 586.14 341.77 586.04 341.87 586.04 341.97 585.12 342.99 579.11 349.41 569.23 349.41 566.98 349.41 564.64 349.1 562.2 348.49 561.99 348.39 561.79 348.69 561.89 348.9 566.88 358.78 564.84 373.66 557.31 380.48 557.2 380.58 557.1 380.58 557 380.48 555.47 379.67 545.49 372.84 536.42 372.84 530.92 372.84 527.04 375.39 524.8 380.48 518.59 393.83 538.46 407.08 544.67 410.23 544.77 410.23 544.77 410.34 544.77 410.44 549.56 434.58 539.27 485.83 493.83 484.41 484.76 484.41 474.37 482.57 463.16 479.01 463.06 479.01 462.86 479.01 462.86 479.11 461.33 481.86 449.41 505.5 439.32 539.53 439.12 539.53 439.02 539.63 438.91 539.63Z" fill="#010005" opacity="1" stroke-width="4" stroke="none"></path><path d="M585.32 389.75C586.95 393.12 591.95 393.63 594.49 392.71" stroke="#000000" stroke-width="4" stroke-linecap="round" stroke-linejoin="round" opacity="1" fill="none"></path><path d="M584 372.64C585.52 372.64 586.75 371.4 586.75 369.89 586.75 368.37 585.52 367.14 584 367.14 582.48 367.14 581.25 368.37 581.25 369.89 581.25 371.4 582.48 372.64 584 372.64Z" fill="#010005" opacity="1" stroke-width="4" stroke="none"></path><path d="M557.92 420.52C557.92 420.52 564.44 423.48 568.61 425.21" stroke="#000000" stroke-width="4" stroke-linecap="round" stroke-linejoin="round" opacity="1" fill="none"></path><path d="M540.29 387.82L548.64 392.81" stroke="#000000" stroke-width="4" stroke-linecap="round" stroke-linejoin="round" opacity="1" fill="none"></path><path d="M492.4 337.59C463.98 337.79 445.43 296.22 469.28 279.31 483.03 270.14 501.37 276.97 510.74 290.72 524.5 310.08 515.63 337.59 492.4 337.59Z" fill="#010005" opacity="1" stroke-width="4" stroke="none"></path><path d="M493.22 1059.86C489.75 1047.63 487.21 1035.92 485.37 1023.49 485.37 1023.28 485.48 1023.18 485.68 1023.18 488.84 1023.08 514.41 1022.67 514.41 1022.67 521.54 1022.67 528.37 1025.63 533.26 1030.82L542.74 1040.81C543.35 1041.52 544.26 1041.93 545.28 1041.93 547.63 1041.93 549.46 1039.58 548.64 1037.34L541.41 1015.74C539.58 1010.14 543.86 1003.82 549.97 1003.92 549.97 1003.92 566.27 1004.03 568.61 1004.03 568.82 1004.03 568.92 1004.13 568.92 1004.33 569.12 1024.61 581.45 1030.52 593.88 1040.4 602.54 1047.23 609.37 1051.61 613.65 1059.66 613.75 1059.86 613.65 1060.06 613.44 1060.06 605.5 1060.47 494.75 1064.65 493.22 1059.86Z" fill="#ff0000" opacity="1" stroke-width="4" stroke="none"></path><path d="M290.67 1011.06C291.99 997.4 294.03 983.04 297.09 970.3 297.09 970.1 297.29 970 297.5 970.1 300.35 971.32 321.34 980.59 321.54 980.59 327.96 983.34 333.16 989.15 335.4 995.47 335.6 995.87 340.08 1008.41 340.08 1008.51 340.59 1009.73 341.82 1010.65 343.14 1010.65 345.08 1010.85 346.71 1008.92 346.81 1007.49 346.91 1006.88 348.85 984.77 348.85 984.57 349.25 978.55 356.39 974.89 361.28 977.33 361.68 977.54 378.6 985.07 380.84 986.09 380.94 986.2 381.04 986.3 380.94 986.5 364.03 1021.14 390.31 1030.72 398.06 1057.62 398.16 1057.82 397.96 1058.03 397.75 1058.03 388.89 1057.31 317.36 1040.5 290.67 1011.26 290.77 1011.26 290.67 1011.16 290.67 1011.06Z" fill="#ff0000" stroke-linejoin="round" opacity="1" stroke-width="4" stroke="none"></path><path d="M587.97 602.7C587.97 602.59 587.87 602.49 587.67 602.49 584.71 602.49 571.67 602.39 554.15 602.39 543.04 602.29 522.15 602.39 507.18 602.49 504.63 602.49 503.1 602.49 503.1 602.49 495.97 602.49 490.88 602.49 490.06 602.49 489.96 602.49 489.96 602.49 489.86 602.59 431.78 654.05 429.44 728.02 394.29 798.52 382.88 821.04 357.2 845.39 340.19 870.45 325.31 891.24 314.1 913.55 306.16 937.8 306.16 937.9 306.16 938.11 306.36 938.21 311.05 940.25 383.08 972.03 387.56 973.97 387.66 974.07 387.87 973.97 387.97 973.87 395.61 962.35 397.24 958.18 406.51 943.2 431.37 901.32 453.69 874.94 477.22 835.1 485.58 820.43 493.73 803.41 501.57 785.38 501.68 785.07 502.08 785.17 502.08 785.48 504.63 811.16 503.31 837.03 492.91 875.14 485.58 903.97 482.01 932.71 481.5 962.35 481.4 971.83 481.2 978.45 481.91 987.72 481.91 987.83 482.01 988.03 482.21 988.03 487.31 988.03 565.15 988.03 570.14 988.03 570.24 988.03 570.45 987.93 570.45 987.83 576.05 943.51 586.85 876.26 592.86 833.77 607.13 728.93 594.09 626.64 587.97 602.7Z" fill="#ff6e00" opacity="1" stroke-width="4" stroke="none"></path><path d="M488.94 698.47C488.94 698.16 488.53 698.06 488.43 698.37 474.17 722.41 480.89 752.77 481.91 777.94 482.72 804.94 478.85 826.85 477.63 833.16 477.53 833.47 478.04 833.67 478.14 833.37 486.49 818.49 494.54 801.68 501.98 784.36V784.26C499.74 759.5 492.51 733.62 488.94 698.47Z" fill="#000000" opacity="0.2" stroke-width="4" stroke="none"></path><path d="M488.94 698.47C490.47 718.34 499.84 758.68 501.78 785.07" stroke="#000000" stroke-width="4" stroke-linecap="round" stroke-linejoin="round" opacity="1" fill="none"></path><path d="M591.95 587.82L579.01 556.95" stroke="#12234a" stroke-width="4" stroke-linecap="round" stroke-linejoin="round" opacity="1" fill="none"></path><path d="M477.12 539.32L490.06 602.39 587.87 602.59" stroke="#12234a" stroke-width="4" stroke-linecap="round" stroke-linejoin="round" opacity="1" fill="none"></path><path d="M483.44 571.62L471.92 576.92" stroke="#12234a" stroke-width="4" stroke-linecap="round" stroke-linejoin="round" opacity="1" fill="none"></path><path d="M375.23 1013.4L361.68 1017.27" stroke="#030303" stroke-width="4" stroke-linecap="round" stroke-linejoin="round" opacity="1" fill="none"></path><path d="M378.29 1022.87L368.82 1029.5" stroke="#030303" stroke-width="4" stroke-linecap="round" stroke-linejoin="round" opacity="1" fill="none"></path><path d="M575.64 1025.12L565.56 1033.06" stroke="#030303" stroke-width="4" stroke-linecap="round" stroke-linejoin="round" opacity="1" fill="none"></path><path d="M582.98 1032.04L576.87 1041.72" stroke="#030303" stroke-width="4" stroke-linecap="round" stroke-linejoin="round" opacity="1" fill="none"></path><path d="M741.72 723.64L717.27 686.14" stroke="#000000" stroke-width="4" stroke-linecap="round" stroke-linejoin="round" opacity="1" fill="none"></path><path d="M753.84 717.01L728.47 676.97" stroke="#000000" stroke-width="4" stroke-linecap="round" stroke-linejoin="round" opacity="1" fill="none"></path><path d="M290.06 1027.05C289.96 1027.05 289.85 1026.95 289.85 1026.75 289.85 1025.32 290.57 1013.91 290.67 1011.57 290.67 1011.36 290.87 1011.26 291.08 1011.36L398.16 1058.03C398.26 1058.03 398.36 1058.13 398.36 1058.23 398.57 1059.45 399.59 1067.7 397.14 1073.41 397.04 1073.51 396.94 1073.61 396.73 1073.51L290.06 1027.05Z" fill="#030303" stroke-linejoin="round" opacity="1" stroke-width="4" stroke="none"></path><path d="M497.7 1073.51C496.38 1069.95 493.83 1062 493.32 1060.17 493.22 1059.96 493.42 1059.76 493.63 1059.76H613.55C613.65 1059.76 613.75 1059.86 613.85 1059.96 615.99 1064.04 616.91 1068.72 616.7 1073.41 616.7 1073.61 616.6 1073.72 616.4 1073.72 610.18 1073.72 503.1 1073.72 498.01 1073.72 497.91 1073.72 497.8 1073.61 497.7 1073.51Z" fill="#030303" opacity="1" stroke-width="4" stroke="none"></path></g></svg>