<svg xmlns="http://www.w3.org/2000/svg" height="1200" width="1600" version="1.1" xmlns:xlink="http://www.w3.org/1999/xlink" xmlns:svgjs="http://svgjs.com/svgjs"><rect fill="#ffffff" width="1600" height="1200"></rect><g><path d="M492.66 271.01H410.84C410.84 271.01 401.39 319.37 429.86 345.02H511.67C483.2 319.37 492.66 271.01 492.66 271.01Z" fill="#ffa0dc" opacity="1" stroke-width="4" stroke="none"></path><path d="M377.98 229.17H296.17C296.17 229.17 286.71 277.54 315.18 303.19H397C368.43 277.54 377.98 229.17 377.98 229.17Z" fill="#ffc930" opacity="1" stroke-width="4" stroke="none"></path></g><g><path d="M972.53 1014.55H948.34V750.48C948.34 721.38 921.92 697.67 889.51 697.67H479.8C447.38 697.67 420.97 721.38 420.97 750.48V1014.55H396.77V750.48C396.77 710.58 434.03 678.11 479.8 678.11H889.51C935.28 678.11 972.53 710.58 972.53 750.48V1014.55Z" fill="#3c2c5b" opacity="1" stroke-width="4" stroke="none"></path></g><g><path d="M787.72 678.11H682.46L675.71 639.9 668.95 601.44H774.21L776.68 615.34 787.72 678.11Z" fill="#ff2200" opacity="1" stroke-width="4" stroke="none"></path><path d="M675.71 639.9L668.95 601.44H774.21L776.68 615.34 675.71 639.9Z" fill="#490a00" opacity="0.2" stroke-width="4" stroke="none"></path><path d="M859.58 608.71H586.17C567.98 608.71 550.7 594.03 547.45 575.84L514.31 388.19C511.06 370 523.28 355.32 541.34 355.32L814.88 355.32C833.07 355.32 850.36 370 853.6 388.19L886.61 575.97C889.86 594.03 877.77 608.71 859.58 608.71Z" fill="#ff2200" opacity="1" stroke-width="4" stroke="none"></path><path d="M845.42 588.96H593.32C581.62 588.96 570.58 579.48 568.5 567.91L538.22 396.38C536.14 384.69 543.94 375.33 555.64 375.33L807.73 375.33C819.43 375.33 830.47 384.82 832.55 396.38L862.83 567.91C864.78 579.48 856.98 588.96 845.42 588.96Z" fill="#ffffff" opacity="1" stroke-width="4" stroke="none"></path><path d="M775.51 608.71H670.25" stroke="#490a00" stroke-width="4" stroke-linecap="round" stroke-linejoin="round" opacity="1" fill="none"></path></g><g><path d="M710.27 438.36C706.15 437.35 703.05 433.8 703.33 430.43 703.61 427.06 707.17 425.15 711.29 426.15 715.4 427.16 718.51 430.71 718.23 434.08 717.95 437.45 714.38 439.36 710.27 438.36Z" fill="#ffffff" opacity="1" stroke-width="4" stroke="none"></path><path d="M736.67 473.24C733.14 472.83 730.11 469.22 729.9 465.19 729.68 461.14 732.37 458.2 735.89 458.61 739.41 459.02 742.44 462.63 742.66 466.67 742.87 470.71 740.19 473.65 736.67 473.24Z" fill="#ffffff" opacity="1" stroke-width="4" stroke="none"></path><path d="M672.58 441.57C670.18 438.86 670.49 434.84 673.26 432.58 676.04 430.32 680.23 430.69 682.63 433.39 685.03 436.1 684.72 440.13 681.95 442.38 679.17 444.64 674.98 444.28 672.58 441.57Z" fill="#ffffff" opacity="1" stroke-width="4" stroke="none"></path><path d="M741.52 466.67C754.82 466.62 756.92 481.4 744.75 487.43 730.37 494.55 712.44 485.78 712.44 485.78" stroke="#3c2c5b" stroke-width="4" stroke-linecap="round" stroke-linejoin="round" opacity="1" fill="none"></path><path d="M672.5 433.05C659.95 426.01 644.9 436.25 668.55 457.61" stroke="#3c2c5b" stroke-width="4" stroke-linecap="round" stroke-linejoin="round" opacity="1" fill="none"></path><path d="M733.43 452.71C740.29 446.41 733.27 435.35 723.43 438.63" stroke="#3c2c5b" stroke-width="4" stroke-linecap="round" stroke-linejoin="round" opacity="1" fill="none"></path><path d="M733.43 494.82C744.89 496.19 748.37 503.06 747.64 507.41 746.55 513.99 738.74 517.82 738.74 517.82" stroke="#3c2c5b" stroke-width="4" stroke-linecap="round" stroke-linejoin="round" opacity="1" fill="none"></path><path d="M693.3 505.55C691.42 506.29 688.87 506.7 686.05 506.7 679.45 506.7 673.38 504.4 670 500.62 664.42 494.44 663.09 487.32 665.05 474.2 664.42 473.57 660.57 469.49 660.77 466.97 660.9 464.67 666.05 464.04 666.74 463.93L666.91 462.57C667.45 459.31 667.94 456.24 668.5 453.45 670.54 443.32 680.05 445.78 689.26 442 693.8 440.09 695.38 440.2 700.62 440.25 710.59 440.25 711.92 440.33 719.68 446.3 731.79 455.75 725.54 460.84 725.33 470.61L728.96 477.08C729.03 481.81 736.72 495.31 736.39 506.35 736.35 507.39 736.41 508.37 736.39 509.36L731.97 514.23 696.45 513.22 693.13 509.36 693.3 505.55Z" fill="#eaa58b" opacity="1" stroke-width="4" stroke="none"></path><path d="M693.12 509.33L693.3 505.55C695.9 504.43 698.44 503.14 700.85 501.72 701.65 501.25 702.83 501.58 703.44 502.46 703.77 502.92 703.89 503.47 703.79 503.99 703 507.55 701.6 511.82 699.38 511.82 695.55 511.82 693.26 511.25 693.26 511.25L693.12 509.33Z" fill="#000000" opacity="0.3" stroke-width="4" stroke="none"></path><path d="M671.26 518.64C681.39 513.55 692.83 513.71 692.83 513.71L693.12 509.33 736.41 509.33C736.38 510.89 736.33 512.37 736.26 513.71 736.26 513.71 750.7 514.26 759.72 520.56 769.21 527.18 771.06 533.97 771.06 533.97H658.8C658.8 533.97 661.42 523.57 671.26 518.64Z" fill="#3c2c5b" opacity="1" stroke-width="4" stroke="none"></path><path d="M736.41 506.32C736.64 498.68 736.83 490.55 736.93 484.58L731.68 478.45 721.03 476.53 720.19 477.02C718.85 484.39 711.29 489.78 711.21 489.84L711.19 489.86 711.2 489.89C711.57 492.08 713 494.63 714.91 496.54 717.21 498.9 720.31 500.24 723.32 500.21 725.23 500.19 727.05 499.78 728.67 499.01 730.97 504.4 736.41 506.32 736.41 506.32Z" fill="#c65a42" opacity="1" stroke-width="4" stroke="none"></path><path d="M736.93 484.58C736.97 481.02 737.03 476.42 737.03 476.42 737.25 466.67 737.64 448.52 725.47 439.05 717.77 433.1 707.63 429.71 697.61 429.71 692.37 429.68 687.34 430.64 682.76 432.56 673.66 436.31 670.56 443.26 668.51 453.37L668.5 453.45 697.66 466.67 697.68 466.64C697.68 466.64 703.25 462.4 709.05 462.4 712.97 462.4 716.08 464.29 718.36 467.99 720.11 470.86 720.74 473.87 720.18 476.97L720.16 477.02 736.93 484.58Z" fill="#61ccff" opacity="1" stroke-width="4" stroke="none"></path><path d="M687.76 452.6C685.16 449.84 685.32 445.6 688.12 443.11 690.92 440.63 695.29 440.85 697.88 443.61 700.48 446.36 700.32 450.61 697.52 453.09 694.72 455.57 690.35 455.35 687.76 452.6Z" fill="#ffffff" opacity="1" stroke-width="4" stroke="none"></path><path d="M691 449.72C690.06 448.73 690.11 447.2 691.12 446.3 692.13 445.41 693.71 445.49 694.64 446.48 695.58 447.48 695.52 449.01 694.51 449.9 693.51 450.8 691.93 450.72 691 449.72Z" fill="#61ccff" opacity="1" stroke-width="4" stroke="none"></path><path d="M716.95 453.34C715.27 449.4 716.24 445.58 719.11 444.82 721.99 444.06 725.68 446.63 727.36 450.57 729.04 454.52 728.07 458.33 725.19 459.1 722.32 459.86 718.63 457.28 716.95 453.34Z" fill="#ffffff" opacity="1" stroke-width="4" stroke="none"></path><path d="M720.33 452.45C719.73 451.05 720.07 449.7 721.08 449.44 722.09 449.17 723.39 450.08 723.98 451.47 724.57 452.86 724.24 454.21 723.23 454.48 722.22 454.75 720.92 453.84 720.33 452.45Z" fill="#61ccff" opacity="1" stroke-width="4" stroke="none"></path><path d="M678.98 475.93C677.78 479.13 674.3 480.72 670.6 479.76" stroke="#000000" stroke-width="4" stroke-linecap="round" stroke-linejoin="round" opacity="1" fill="none"></path><path d="M702.91 478.45L707.96 475.65" stroke="#000000" stroke-width="4" stroke-linecap="round" stroke-linejoin="round" opacity="1" fill="none"></path><path d="M693.3 505.55C697.69 503.58 701.08 501.61 701.08 501.61" stroke="#000000" stroke-width="4" stroke-linecap="round" stroke-linejoin="round" opacity="1" fill="none"></path><path d="M708.46 509.33L707.84 533.97" stroke="#000000" stroke-width="4" stroke-linecap="round" stroke-linejoin="round" opacity="1" fill="none"></path><path d="M710.93 426.92C715.44 420.02 727.66 418.15 730.81 428.56 733.92 438.83 724.25 449.81 722.12 451.94" stroke="#3c2c5b" stroke-width="4" stroke-linecap="round" stroke-linejoin="round" opacity="1" fill="none"></path><path d="M692.83 448.14C686.38 440.88 680.1 427.57 684.98 424.73 689.21 422.26 695.32 429.79 695.32 429.79" stroke="#3c2c5b" stroke-width="4" stroke-linecap="round" stroke-linejoin="round" opacity="1" fill="none"></path><path d="M674.11 468.26C673.2 468.26 672.34 467.52 672.18 466.62 672.03 465.71 672.64 464.97 673.54 464.97 674.45 464.97 675.31 465.71 675.47 466.62 675.62 467.52 675.02 468.26 674.11 468.26Z" fill="#000000" opacity="1" stroke-width="4" stroke="none"></path></g><g><path d="M806.26 1014.24C809.28 1008.51 812.19 1003.07 814.91 997.43 818.8 989.17 821.61 982.86 824.04 977.13L824.14 976.93H824.04C820.25 975.57 809.76 972.27 795.09 972.27 789.94 972.27 784.89 972.66 780.03 973.53H779.93L773.91 998.99 805.97 1014.92 806.26 1014.24Z" fill="#343434" opacity="1" stroke-width="4" stroke="none"></path><path d="M1043.13 473.18C1044.88 463.76 1047.21 451.61 1048.96 441.8 1050.41 434.03 1051.68 416.35 1052.26 412.95 1052.26 412.95 992.41 358.25 985.61 360.97 976.38 364.56 970.07 369.81 965.5 377 961.23 383.8 958.51 392.35 955.01 402.75L954.13 405.37C953.06 405.47 945.49 406.53 944.71 409.84 943.84 413.34 948.4 419.36 949.08 420.14 943.06 439.08 943.16 449.38 949.57 458.22 953.45 463.66 961.52 466.97 971.04 466.97 975.12 466.97 978.91 466.38 981.92 465.22L979.39 480.76 1043.13 473.18Z" fill="#cf5934" opacity="1" stroke-width="4" stroke="none"></path><path d="M985.61 480.66L995.62 458.71C987.94 462.98 981.92 465.22 981.92 465.22L980.17 475.81 985.61 480.66Z" fill="#030202" opacity="0.2" stroke-width="4" stroke="none"></path><path d="M955.2 431.99C957.73 432.86 962.88 432.28 964.53 428.98" stroke="#030202" stroke-width="4" stroke-linecap="round" stroke-linejoin="round" opacity="1" fill="none"></path><path d="M965.79 411.2C964.29 411.2 963.07 409.98 963.07 408.48 963.07 406.97 964.29 405.76 965.79 405.76 967.3 405.76 968.51 406.97 968.51 408.48 968.51 409.98 967.3 411.2 965.79 411.2Z" fill="#231f20" opacity="1" stroke-width="4" stroke="none"></path><path d="M1002.13 431.99L1010.68 426.84" stroke="#030202" stroke-width="4" stroke-linecap="round" stroke-linejoin="round" opacity="1" fill="none"></path><path d="M1077.03 393.9C1058.85 393.9 1044.1 379.16 1044.1 360.97 1044.1 342.78 1058.85 328.03 1077.03 328.03 1095.22 328.03 1109.97 342.78 1109.97 360.97 1109.97 379.16 1095.22 393.9 1077.03 393.9Z" fill="#231f20" opacity="1" stroke-width="4" stroke="none"></path><path d="M969.87 947.3L972.59 941.28V941.18C971.43 930.49 969.68 919.51 967.54 908.54L962.68 893.96 865.72 895.52 868.15 908.73C870.87 917.96 872.81 924.86 873.3 930.4L898.76 981.01 969.87 947.3Z" fill="#cf5934" opacity="1" stroke-width="4" stroke="none"></path><path d="M975.7 1014.82V1014.63C975.9 1008.02 975.9 1001.51 975.9 995.2 975.9 987.52 975.6 980.04 975.31 972.85V972.66H975.12C960.74 974.8 947.33 980.92 936.35 990.53L936.26 990.63 939.27 1014.82H975.7Z" fill="#343434" opacity="1" stroke-width="4" stroke="none"></path><path d="M926.54 1001.61C939.66 985.48 955.98 975.96 975.12 973.14H975.31V972.46C975.12 969.65 975.02 966.83 974.83 964.21 974.34 956.92 972.88 943.32 972.69 941.28 972.69 941.18 972.59 941.08 972.4 941.08 935.67 942.83 911.48 962.65 906.43 967.12 906.24 967.31 905.94 967.12 906.04 966.93L909.44 945.65C910.03 942.15 909.25 938.56 907.11 935.74 905.07 932.82 901.96 930.88 898.46 930.3 897.78 930.2 897.01 930.1 896.23 930.1H873.2C873.01 930.1 872.91 930.2 872.91 930.4 873.01 931.76 873.59 937.49 873.59 939.04 873.49 962.46 863.1 971.98 852.99 981.11 848.14 985.48 843.57 989.66 840.27 995.2 839.1 997.14 838.23 999.18 837.45 1001.32L837.35 1001.61H926.54Z" fill="#61ccff" opacity="1" stroke-width="4" stroke="none"></path><path d="M967.64 908.73V908.54C959.87 867.63 946.46 827.99 927.71 790.78L921.68 779.03C963.85 778.93 999.99 766.4 1016.22 746.19 1024.57 735.7 1027.39 723.84 1024.47 710.92 1017.67 681.48 1006.69 662.54 1006.6 662.44L1006.31 661.86 1006.01 666.23C1000.77 666.81 877.58 681.78 839.49 726.95 813.94 757.26 837.26 821.78 855.91 873.56 860.48 886.29 864.85 898.33 868.05 908.73H967.64Z" fill="#ffc930" opacity="1" stroke-width="4" stroke="none"></path><path d="M864.75 897.36C864.95 896.88 879.42 844.7 941.41 821.39L941.6 821.29 941.5 821.1C937.13 810.51 932.47 800.3 927.61 790.69 925.67 786.9 924.5 784.47 923.92 783.4 924.02 783.3 924.02 783.3 923.04 781.36V781.26L828.8 753.18V753.38C824.63 786.99 841.92 834.99 855.81 873.46 858.92 881.92 861.74 889.88 864.26 897.36L864.46 897.95 864.75 897.36Z" fill="#211800" opacity="0.2" stroke-width="4" stroke="none"></path><path d="M868.05 963.72L883.6 970.13" stroke="#343434" stroke-width="4" stroke-linecap="round" stroke-linejoin="round" opacity="1" fill="none"></path><path d="M859.21 975.67L872.33 985.58" stroke="#343434" stroke-width="4" stroke-linecap="round" stroke-linejoin="round" opacity="1" fill="none"></path><path d="M868.93 908.83L967.44 908.63" stroke="#211800" stroke-width="4" stroke-linecap="round" stroke-linejoin="round" opacity="1" fill="none"></path><path d="M835.12 948.66C839.2 937.39 842.89 925.44 845.81 914.85L846 906.59 759.92 864.14 755.74 872.1C753.22 885.32 751.76 892.89 750.59 895.52L756.03 953.32 830.16 950.41 835.12 948.66Z" fill="#cf5934" opacity="1" stroke-width="4" stroke="none"></path><path d="M763.51 978.29C773.33 974.6 783.92 972.66 794.99 972.66 809.57 972.66 819.96 975.96 823.75 977.32L823.95 977.42 824.04 977.22C825.31 974.6 833.08 955.07 835.41 948.86L835.51 948.47 835.12 948.37C820.84 941.86 805.49 938.56 789.55 938.56 774.78 938.56 761.04 942.62 761.67 942.25L773.04 925.83C777.89 918.83 776.15 909.22 769.15 904.36 768.47 903.87 750.5 895.23 750.5 895.23 750.5 895.23 748.36 899.99 747.68 901.25 737.09 922.14 723.58 926.02 710.47 929.72 704.15 931.46 698.23 933.21 692.79 936.71 691.04 937.88 689.39 939.24 687.93 940.6L688.03 940.99 763.51 978.29Z" fill="#61ccff" opacity="1" stroke-width="4" stroke="none"></path><path d="M845.51 915.82C852.9 888.04 857.76 865.79 860.18 845.19 862.42 826.44 862.81 810.21 862.71 790.1L1003.97 790.49C1022.73 790.49 1043.52 787.19 1057.51 773.59 1067.51 763.87 1071.98 750.37 1073.73 736.86 1075.19 725.69 1075.19 714.23 1072.37 703.44 1069.26 691.69 1069.17 681.87 1064.31 672.84L1055.47 659.14H954.23L949.86 662.34C948.3 662.64 920.61 667.69 888.36 676.43 833.27 691.39 811.61 704.61 803.15 713.06 780.42 736.47 774.98 767.27 767.4 809.83 766.14 816.82 764.88 824.11 763.42 831.69L762.45 836.93C760.02 849.85 757.78 862.19 755.74 872.49L845.51 915.82Z" fill="#ffc930" opacity="1" stroke-width="4" stroke="none"></path><path d="M855.81 872.39C862.03 840.04 862.61 817.99 862.52 790.78" stroke="#211800" stroke-width="4" stroke-linecap="round" stroke-linejoin="round" opacity="1" fill="none"></path><path d="M730.77 921.55L741.36 934.48" stroke="#343434" stroke-width="4" stroke-linecap="round" stroke-linejoin="round" opacity="1" fill="none"></path><path d="M718.43 927.97L725.33 942.83" stroke="#343434" stroke-width="4" stroke-linecap="round" stroke-linejoin="round" opacity="1" fill="none"></path><path d="M756.23 872.39L843.96 915.24" stroke="#211800" stroke-width="4" stroke-linecap="round" stroke-linejoin="round" opacity="1" fill="none"></path><path d="M856.01 517.49L855.81 513.7C840.56 497.57 823.36 479.69 810.83 470.95 791.88 457.74 758.07 444.91 746.8 444.91 743.21 444.91 741.46 445.98 741.36 448.12 741.27 454.04 749.62 459.19 761.28 466.28 762.45 466.97 763.71 467.74 764.97 468.52 763.51 468.81 762.06 470.17 761.18 472.02 759.82 475.03 760.31 478.53 762.64 481.34 760.21 482.12 758.56 483.58 757.78 485.72 756.91 488.34 757.49 491.45 759.34 494.17 757.59 495.72 756.62 497.86 756.52 500.39 756.42 504.18 758.37 507.87 760.41 509.71 763.51 512.82 766.53 515.35 771.68 515.35 772.94 515.35 774.3 515.15 775.85 514.86 781.88 522.44 789.46 527.59 797.23 529.24 798.2 530.8 799.66 534 801.79 538.47 803.45 541.87 805.39 546.15 807.72 550.81L809.66 552.17 856.01 517.49Z" fill="#cf5934" opacity="1" stroke-width="4" stroke="none"></path><path d="M1071.11 697.32C1123.96 678.37 1125.13 640 1120.17 608.71 1117.45 591.13 1110.65 567.91 1101.62 545.08 1093.26 524 1084.32 506.7 1078.3 500.1 1064.79 485.23 1043.71 481.54 1041.48 481.25 1041.67 480.28 1041.86 479.3 1042.06 478.24 1042.35 476.58 1042.74 474.74 1043.13 472.79V472.6H980.56L979.1 481.15H976.67C951.22 481.15 928.68 493.59 907.69 519.14L884.28 545.86C882.82 544.11 870.58 529.44 855.81 513.5L855.72 513.41 807.72 550.81C828.9 592.39 850.08 616.58 870.58 622.41 874.08 623.39 877.77 623.87 881.56 623.87 909.93 623.87 938.69 596.47 941.79 593.46L949.96 662.25H1055.37C1064.89 676.63 1070.82 696.83 1070.82 697.13L1070.91 697.32H1071.11Z" fill="#61ccff" opacity="1" stroke-width="4" stroke="none"></path><path d="M1055.37 662.25L1067.13 618.24 1067.32 618.33C1073.25 621.44 1074.7 630.28 1076.45 640.48 1078.88 655.25 1081.99 673.61 1100.64 680.71H1100.74C1093.36 687.12 1083.74 692.75 1071.11 697.32H1070.91L1070.82 697.13C1070.82 696.83 1064.89 676.63 1055.37 662.25Z" fill="#081921" opacity="0.2" stroke-width="4" stroke="none"></path><path d="M984.83 662.25L953.94 582.09 941.79 593.46 949.96 662.25H984.83Z" fill="#081921" opacity="0.2" stroke-width="4" stroke="none"></path><path d="M1055.47 662.15L1072.95 597.06" stroke="#081921" stroke-width="4" stroke-linecap="round" stroke-linejoin="round" opacity="1" fill="none"></path><path d="M1078.88 641.07L1064.21 633.97" stroke="#081921" stroke-width="4" stroke-linecap="round" stroke-linejoin="round" opacity="1" fill="none"></path><path d="M941.89 593.17L958.12 576.85" stroke="#081921" stroke-width="4" stroke-linecap="round" stroke-linejoin="round" opacity="1" fill="none"></path><path d="M884.47 546.54L885.44 559.17" stroke="#081921" stroke-width="4" stroke-linecap="round" stroke-linejoin="round" opacity="1" fill="none"></path><path d="M764.29 468.03C771.09 468.03 782.65 470.37 787.03 472.99" stroke="#030202" stroke-width="4" stroke-linecap="round" stroke-linejoin="round" opacity="1" fill="none"></path><path d="M763.03 481.54C769.83 480.66 783.53 486.69 783.53 486.69" stroke="#030202" stroke-width="4" stroke-linecap="round" stroke-linejoin="round" opacity="1" fill="none"></path><path d="M759.63 494.27C764 493.39 773.33 495.14 779.35 499.41" stroke="#030202" stroke-width="4" stroke-linecap="round" stroke-linejoin="round" opacity="1" fill="none"></path><path d="M775.27 514.18L771.29 507.67" stroke="#030202" stroke-width="4" stroke-linecap="round" stroke-linejoin="round" opacity="1" fill="none"></path><path d="M982.5 465.02C986.87 463.37 990.18 461.72 990.18 461.72" stroke="#030202" stroke-width="4" stroke-linecap="round" stroke-linejoin="round" opacity="1" fill="none"></path><path d="M1152.33 552.75C1155.54 538.28 1148.06 524.29 1132.22 515.35 1140.19 493.88 1138.44 473.18 1127.17 456.86 1115.51 440.05 1095.59 430.34 1072.37 430.34 1065.18 430.34 1057.9 431.31 1050.51 433.16 1050.8 431.5 1051.09 429.95 1051.39 428.59 1051.77 426.65 1052.07 424.99 1052.26 423.83L1052.45 422.57C1055.08 408.67 1059.94 382.73 1044.97 369.32 1035.36 360.77 1021.56 355.92 1007.08 355.92 999.41 355.92 991.73 357.28 984.93 360 975.41 363.69 969 369.71 964.14 379.14 964.14 379.14 970.16 387.2 981.24 387.2 983.67 387.2 986.29 386.81 985.91 387.01 983.38 395.94 987.11 410.67 991.66 417.06L993.07 418.85 993.56 419.5C994.46 418.87 1005.14 411.2 1014.86 411.2 1020.49 411.2 1024.47 413.82 1026.71 419.07 1033.61 435.29 1006.6 449.38 1006.31 449.57H1006.21V449.67C1004.46 456.47 1003.2 487.17 1019.03 507.58 1028.26 519.43 1041.48 525.45 1058.38 525.45 1067.81 525.45 1078.4 523.51 1089.96 519.82 1091.03 521.86 1102.2 544.2 1113.47 581.32 1113.47 581.32 1145.92 582.29 1152.33 552.75Z" fill="#231f20" opacity="1" stroke-width="4" stroke="none"></path><path d="M927.51 790.49L839.59 789.71" stroke="#211800" stroke-width="4" stroke-linecap="round" stroke-linejoin="round" opacity="1" fill="none"></path><path d="M1007.86 462.01C1002.5 462.01 998.14 457.66 998.14 452.29 998.14 446.93 1002.5 442.58 1007.86 442.58 1013.22 442.58 1017.58 446.93 1017.58 452.29 1017.58 457.66 1013.22 462.01 1007.86 462.01Z" fill="#ffffff" opacity="1" stroke-width="4" stroke="none"></path><path d="M1050.51 433.16C1046.33 434.61 1041.96 436.65 1037.98 438.69" stroke="#231f20" stroke-width="4" stroke-linecap="round" stroke-linejoin="round" opacity="1" fill="none"></path><path d="M1132.22 515.35C1130.08 520.4 1127.36 525.36 1124.45 530.02" stroke="#231f20" stroke-width="4" stroke-linecap="round" stroke-linejoin="round" opacity="1" fill="none"></path><path d="M1090.15 519.82C1099.19 517.39 1104.04 513.5 1104.04 513.5" stroke="#231f20" stroke-width="4" stroke-linecap="round" stroke-linejoin="round" opacity="1" fill="none"></path><path d="M855.62 513.7L807.82 550.91" stroke="#081921" stroke-width="4" stroke-linecap="round" stroke-linejoin="round" opacity="1" fill="none"></path><path d="M748.16 986.07C753.02 982.86 758.17 980.24 763.61 978.29L764 978.1 688.32 940.31 688.22 940.4C684.72 943.71 681.9 947.49 679.86 951.87L679.77 952.06 748.16 986.07Z" fill="#343434" opacity="1" stroke-width="4" stroke="none"></path><path d="M917.12 1014.82C920.03 1010.06 923.34 1005.5 926.83 1001.32L927.03 1001.03H837.55L837.45 1001.12C835.9 1005.5 835.41 1010.06 835.41 1014.63V1014.82H917.12Z" fill="#343434" opacity="1" stroke-width="4" stroke="none"></path></g><g><path d="M1066.17 814.2L1114.37 1013.09" stroke="#231f20" stroke-width="4" stroke-linecap="round" stroke-linejoin="round" opacity="1" fill="none"></path><path d="M972.51 814.2L924.32 1013.09" stroke="#231f20" stroke-width="4" stroke-linecap="round" stroke-linejoin="round" opacity="1" fill="none"></path><path d="M954.14 890.61H1084.44" stroke="#231f20" stroke-width="4" stroke-linecap="round" stroke-linejoin="round" opacity="1" fill="none"></path><path d="M946.37 788.68H1092.21C1103.03 788.68 1111.74 795.24 1111.74 803.38 1111.74 811.51 1103.03 818.07 1092.21 818.07H946.37C935.55 818.07 926.84 811.51 926.84 803.38 926.84 795.32 935.66 788.68 946.37 788.68Z" fill="#3c2c5b" opacity="1" stroke-width="4" stroke="none"></path><path d="M927.26 806.22C929.04 812.94 936.92 818.07 946.37 818.07H1092.21C1103.03 818.07 1111.74 811.51 1111.74 803.38 1111.74 800.06 1110.27 797.05 1107.86 794.6 1082.34 800.93 1051.89 805.59 1018.92 807.8 985.43 810.01 954.03 809.3 927.26 806.22Z" fill="#1c1c1c" opacity="0.3" stroke-width="4" stroke="none"></path></g><g><path d="M520.39 678.22V599.73H589.65V678.22H520.39Z" fill="#61ccff" opacity="1" stroke-width="4" stroke="none"></path><path d="M555.02 620.04C532.21 620.04 521.77 602.26 520.52 599.97 520.51 599.94 520.51 599.91 520.51 599.88 520.51 599.86 520.51 599.83 520.52 599.81 520.54 599.78 520.56 599.76 520.59 599.75 520.61 599.74 520.63 599.73 520.67 599.73H588.99C589.05 599.73 589.13 599.75 589.18 599.78 589.25 599.81 589.29 599.87 589.33 599.92 589.37 599.98 589.38 600.05 589.38 600.11 589.38 600.19 589.37 600.25 589.33 600.32 587.43 603.65 576.93 620.04 555.02 620.04Z" fill="#19333f" opacity="1" stroke-width="4" stroke="none"></path><path d="M604.24 644.05C611.38 644.05 617.17 638.26 617.17 631.12 617.17 623.99 611.38 618.2 604.24 618.2 597.1 618.2 591.31 623.99 591.31 631.12 591.31 638.26 597.1 644.05 604.24 644.05Z" stroke="#142026" stroke-width="4" stroke-linecap="round" stroke-linejoin="round" opacity="1" fill="none"></path></g><g><path d="M335.31 860.49C330.73 843.43 305.77 838.33 295.5 871.27 286.56 900.01 273.93 904.22 268.17 932.65 262.71 959.83 278.44 999.12 318.76 996.32 361.23 993.36 335.31 860.49 335.31 860.49Z" stroke="#ffffff" stroke-width="4" stroke-linecap="round" stroke-linejoin="round" opacity="1" fill="none"></path><path d="M352.36 787.74L406.91 890.07 311.75 940.8 257.2 838.47 352.36 787.74Z" fill="#ffc930" opacity="1" stroke-width="4" stroke="none"></path><path d="M378.96 801.33H378.66C362.27 801.33 348.97 814.63 348.97 831.02V858.72H408.65V831.02C408.65 814.63 395.36 801.33 378.96 801.33Z" stroke="#ffffff" stroke-width="4" stroke-linecap="round" stroke-linejoin="round" opacity="1" fill="none"></path><path d="M378.89 829.18H378.22C335.68 829.18 301.26 863.67 301.26 906.14V997.8C301.26 1007.62 309.24 1015.6 319.06 1015.6H438.05C447.87 1015.6 455.85 1007.62 455.85 997.8V906.22C455.92 863.67 421.43 829.18 378.89 829.18 378.89 829.18 378.96 829.18 378.89 829.18Z" fill="#ff2200" opacity="1" stroke-width="4" stroke="none"></path><path d="M409.39 923.72H347.86C337.89 923.72 329.77 931.85 329.77 941.82V980.59C329.77 990.56 337.89 998.69 347.86 998.69H409.39C419.36 998.69 427.48 990.56 427.48 980.59V941.82C427.48 931.85 419.36 923.72 409.39 923.72Z" fill="#66251c" opacity="0.3" stroke-width="4" stroke="none"></path><path d="M409.14 927.83H347.86C339.38 927.33 337.39 932.75 329.73 943.83V972.47C329.77 982.44 337.89 990.56 347.86 990.56H409.39C419.36 990.56 427.48 982.44 427.48 972.47V943.49C421.59 929.4 418.75 928.32 409.14 927.33Z" fill="#d69e00" opacity="1" stroke-width="4" stroke="none"></path><path d="M409.39 915.6H347.86C337.89 915.6 329.77 923.72 329.77 933.69V943.44H427.48V933.69C427.48 923.72 419.36 915.6 409.39 915.6Z" fill="#ffc930" stroke="#272459" stroke-width="4" opacity="1"></path><path d="M427.48 943.44H329.7" stroke="#fcfcfc" stroke-width="4" stroke-linecap="round" stroke-linejoin="round" opacity="1" fill="none"></path><path d="M378.59 892.26C370.43 892.26 363.82 885.64 363.82 877.49 363.82 869.32 370.43 862.71 378.59 862.71 386.74 862.71 393.36 869.32 393.36 877.49 393.36 885.64 386.74 892.26 378.59 892.26Z" fill="#ffc930" opacity="1" stroke-width="4" stroke="none"></path></g><g><path d="M1283.06 970.05L1270.76 969.91 1278.69 945.32C1276.61 941.5 1274.05 937.93 1271.16 934.71L1262.43 924.9C1256.92 918.65 1255.85 909.52 1259.81 902.19L1267.2 888.35H1202.37 1202.3L1209.76 902.19C1213.66 909.58 1212.58 918.72 1207.01 924.9L1198.27 934.71C1195.32 937.93 1192.76 941.5 1190.61 945.32L1197.47 969.11 1186.85 968.97 1183.02 976.09C1183.36 991.41 1189.47 1005.92 1200.22 1016.87H1269.22C1279.97 1005.99 1286.08 991.55 1286.42 976.23L1283.06 970.05Z" fill="#ff2200" opacity="1" stroke-width="4" stroke="none"></path><path d="M1256.9 985.37C1257.73 986.08 1249.4 979.18 1242.42 976.7 1239.86 975.83 1237.18 975.35 1234.49 975.35 1224.28 975.35 1215.14 981.87 1212.02 983.71 1211.08 984.19 1199.22 975.35 1189.01 975.35 1186.99 975.35 1184.98 975.62 1183.03 976.09 1182.76 965.34 1185.45 954.6 1190.69 945.26 1200.36 945.93 1208.15 953.92 1211.78 953.74 1215.03 953.92 1219.58 949.02 1226.56 946.53 1229.12 945.66 1231.8 945.19 1234.49 945.19 1244.7 945.19 1253.91 952.9 1257.26 952.78 1261.32 952.83 1268.89 945.8 1278.7 945.26 1284 954.66 1286.69 965.41 1286.42 976.23 1284.34 975.69 1282.12 975.35 1279.97 975.35 1269.83 975.35 1263.67 978.88 1258.49 983.89Z" fill="#ffc930" opacity="1" stroke-width="4" stroke="none"></path><path d="M1234.69 901.86C1216.62 901.86 1206.18 892.84 1205.11 888.44H1264.47C1264.54 891.47 1252.9 901.86 1234.69 901.86Z" fill="#1d100e" opacity="1" stroke-width="4" stroke="none"></path><path d="M1239.53 899.91C1240.87 891.78 1246.85 859.74 1261.97 842.27" stroke="#ffc930" stroke-width="4" stroke-linecap="round" stroke-linejoin="round" opacity="1" fill="none"></path><path d="M1232.54 900.11C1232.47 890.91 1231.47 845.76 1222.53 818.82" stroke="#ffc930" stroke-width="4" stroke-linecap="round" stroke-linejoin="round" opacity="1" fill="none"></path><path d="M1252.42 865.92C1250.74 863.7 1250.27 861.95 1251.01 860.81 1252.22 858.86 1256.65 858.73 1263.51 860.41 1270.36 862.09 1278.76 865.45 1287.22 869.81 1299.18 875.99 1308.99 883.11 1312.95 888.35 1314.63 890.57 1315.1 892.32 1314.36 893.46 1313.15 895.41 1308.72 895.54 1301.87 893.86 1295.01 892.18 1286.62 888.83 1278.15 884.46 1266.19 878.28 1256.38 871.22 1252.42 865.92Z" fill="#ffc930" opacity="1" stroke-width="4" stroke="none"></path><path d="M1147.42 831.45C1146.89 830.85 1146.62 830.18 1146.55 829.57 1146.28 827.56 1148.16 825.81 1151.79 824.67 1155.42 823.46 1160.39 822.99 1165.76 823.32 1174.97 823.86 1183.37 826.55 1186.05 829.97 1186.59 830.58 1186.86 831.25 1186.93 831.86 1187.46 835.95 1178.86 838.77 1167.71 838.17 1158.51 837.57 1150.18 834.88 1147.42 831.45Z" fill="#ffc930" opacity="1" stroke-width="4" stroke="none"></path><path d="M1168.85 881.64C1159.99 883.18 1154.48 882.58 1153.74 879.96 1152.33 875.05 1167.91 864.57 1188.61 856.58 1197.54 853.15 1206.41 850.53 1213.6 849.26 1222.46 847.71 1227.97 848.31 1228.71 850.93 1229.38 853.29 1226.16 857.05 1219.58 861.48 1212.99 865.92 1203.86 870.42 1193.85 874.31 1184.91 877.81 1176.04 880.43 1168.85 881.64Z" fill="#ffc930" opacity="1" stroke-width="4" stroke="none"></path><path d="M1260.34 772.02C1261.87 767.45 1259.05 762.39 1254.04 760.73 1249.04 759.07 1243.75 761.44 1242.24 766.01 1240.72 770.59 1243.54 775.64 1248.54 777.3 1253.54 778.97 1258.82 776.6 1260.34 772.02Z" fill="#ffc930" opacity="1" stroke-width="4" stroke="none"></path><path d="M1223.99 823.13C1237.58 818.39 1245.25 804.92 1241.1 793.04 1236.96 781.17 1222.58 775.38 1208.99 780.13 1195.39 784.87 1187.73 798.34 1191.88 810.22 1196.02 822.09 1210.4 827.88 1223.99 823.13Z" fill="#ffa0dc" opacity="1" stroke-width="4" stroke="none"></path><path d="M1217.62 804.86C1219.65 804.16 1220.79 802.13 1220.17 800.35 1219.55 798.56 1217.39 797.69 1215.36 798.39 1213.33 799.1 1212.19 801.13 1212.81 802.91 1213.44 804.7 1215.59 805.57 1217.62 804.86Z" fill="#615c5f" opacity="1" stroke-width="4" stroke="none"></path><path d="M1290.33 844.24C1296.2 834.92 1292.32 821.91 1281.65 815.17 1270.98 808.45 1257.57 810.55 1251.69 819.87 1245.81 829.19 1249.69 842.2 1260.36 848.93 1271.03 855.66 1284.45 853.56 1290.33 844.24Z" fill="#ffa0dc" opacity="1" stroke-width="4" stroke="none"></path><path d="M1274.3 834.13C1275.32 832.53 1274.66 830.3 1272.84 829.15 1271.02 828.01 1268.72 828.38 1267.71 829.97 1266.7 831.57 1267.36 833.8 1269.18 834.95 1271 836.1 1273.29 835.73 1274.3 834.13Z" fill="#615c5f" opacity="1" stroke-width="4" stroke="none"></path><path d="M1278.76 945.32C1278.76 945.26 1278.76 945.26 1278.76 945.32 1278.76 945.26 1278.76 945.26 1278.76 945.32 1276.61 941.5 1274.06 938 1271.24 934.71L1262.51 924.9C1256.93 918.65 1255.92 909.58 1259.89 902.19L1267.07 888.43H1248.33L1240.94 902.19C1236.98 909.52 1238.05 918.65 1243.56 924.9L1252.29 934.71C1255.18 937.93 1257.74 941.5 1259.82 945.26 1265.13 954.66 1267.75 965.34 1267.48 976.16 1267.14 991.48 1261.03 1005.99 1250.28 1016.87H1250.55 1269.22L1269.29 1016.81C1280.04 1005.92 1286.15 991.48 1286.49 976.16 1286.76 965.41 1284.07 954.73 1278.76 945.32Z" fill="#1d100e" opacity="0.2" stroke-width="4" stroke="none"></path></g></svg>