<svg xmlns="http://www.w3.org/2000/svg" height="1200" width="1600" version="1.1" xmlns:xlink="http://www.w3.org/1999/xlink" xmlns:svgjs="http://svgjs.com/svgjs"><rect fill="#ffffff" width="1600" height="1200"></rect><g><path d="M1084.71 988.97H1115.29" stroke="#efdcd7" stroke-width="4" stroke-linecap="round" stroke-linejoin="round" opacity="1" fill="none"></path><path d="M608.61 989.76H684.06" stroke="#efdcd7" stroke-width="4" stroke-linecap="round" stroke-linejoin="round" opacity="1" fill="none"></path><path d="M909.2 878.18H984.65" stroke="#efdcd7" stroke-width="4" stroke-linecap="round" stroke-linejoin="round" opacity="1" fill="none"></path><path d="M1256.65 929.01H1320.98" stroke="#efdcd7" stroke-width="4" stroke-linecap="round" stroke-linejoin="round" opacity="1" fill="none"></path><path d="M1360.68 878.18H1436.13" stroke="#efdcd7" stroke-width="4" stroke-linecap="round" stroke-linejoin="round" opacity="1" fill="none"></path><path d="M154.03 878.34H229.48" stroke="#efdcd7" stroke-width="4" stroke-linecap="round" stroke-linejoin="round" opacity="1" fill="none"></path><path d="M556.99 878.18H610.6" stroke="#efdcd7" stroke-width="4" stroke-linecap="round" stroke-linejoin="round" opacity="1" fill="none"></path></g><g><path d="M1229.5 281.9C1262.57 281.9 1289.37 255.11 1289.37 222.04 1289.37 188.97 1262.57 162.18 1229.5 162.18 1196.43 162.18 1169.64 188.97 1169.64 222.04 1169.64 255.11 1196.43 281.9 1229.5 281.9Z" fill="#8aafff" opacity="1" stroke-width="4" stroke="none"></path><path d="M1205.68 322.64C1205.68 322.64 1228.39 251.54 1270.36 243.39 1314.3 234.88 1323.93 285.36 1323.93 285.36 1323.93 285.36 1395.64 245.74 1399.1 322.64H1205.68Z" fill="#80c6ff" opacity="1" stroke-width="4" stroke="none"></path></g><g><path d="M663.39 557.02H344.21V727.23H663.39V557.02Z" fill="#7c7c7c" opacity="1" stroke-width="4" stroke="none"></path><path d="M1234.84 557.02H915.66V727.23H1234.84V557.02Z" fill="#7c7c7c" opacity="1" stroke-width="4" stroke="none"></path><path d="M792.14 296.73C793.18 294.46 795.01 292.63 797.37 291.5 798.76 290.8 800.33 290.46 801.9 290.46 806.08 290.46 809.82 292.9 811.48 295.86L833.26 342.46 769.66 344.73 792.14 296.73Z" fill="#3c2c5b" opacity="1" stroke-width="4" stroke="none"></path><path d="M771.84 340.2L775.59 332.27H775.67C791.96 332.1 807.73 327.13 821.15 317.81L821.58 317.63 832.21 340.28 771.84 340.2Z" fill="#000000" opacity="0.2" stroke-width="4" stroke="none"></path><path d="M1365.33 664.25C1346.08 664.25 1330.49 648.57 1330.49 629.41 1330.49 610.16 1346.17 594.56 1365.33 594.56 1384.5 594.56 1400.18 610.24 1400.18 629.41 1400.18 648.57 1384.59 664.25 1365.33 664.25Z" fill="#3c2c5b" opacity="1" stroke-width="4" stroke="none"></path><path d="M261.63 620.7C242.38 620.7 226.78 605.02 226.78 585.85 226.78 566.6 242.46 551.01 261.63 551.01 280.79 551.01 296.47 566.69 296.47 585.85 296.47 605.02 280.88 620.7 261.63 620.7Z" fill="#3c2c5b" opacity="1" stroke-width="4" stroke="none"></path><path d="M248.91 727.23C236.54 727.23 226.44 717.13 226.44 704.76V698.92C226.44 686.47 236.54 676.27 249.08 676.27H328.7C339.25 676.27 348.83 682.89 352.57 692.82H387.33C387.33 692.82 386.37 703.19 386.37 708.24V727.15L248.91 727.23Z" fill="#cecdce" opacity="1" stroke-width="4" stroke="none"></path><path d="M1189.19 727.23V708.33C1189.19 703.28 1188.93 698.14 1188.32 693.09V692.82L1211.76 692.91C1214.37 683.16 1223.25 676.36 1233.36 676.36H1377.79C1390.16 676.36 1400.27 686.47 1400.27 698.84V704.76C1400.27 717.13 1390.16 727.23 1377.79 727.23H1189.19Z" fill="#cecdce" opacity="1" stroke-width="4" stroke="none"></path><path d="M1188.41 693.96C1185.19 666.08 1172.47 639.86 1152.69 620 1132.92 600.14 1106.61 587.51 1078.74 584.28 1073.95 583.76 1069.07 583.41 1064.19 583.41 1000.86 583.41 947.72 630.89 940.4 693.87L635.25 694.04V693.87C632.03 666.17 619.48 640.04 599.8 620.26 580.2 600.49 554.15 587.68 526.45 584.28 521.31 583.67 516.17 583.33 511.03 583.33 448.13 583.33 395 630.45 387.24 692.91L261.45 693.09V538.38C261.45 503.88 289.5 475.83 324 475.83H379.14L504.93 367.03C524.88 349.78 550.49 340.2 576.89 340.2H865.84C890.14 340.2 913.05 349.6 930.39 366.59L1041.28 475.74 1272.39 502.92C1293.03 505.45 1309.5 520.87 1313.24 541.34L1334.76 560.15C1355.14 563.29 1369.86 580.54 1369.86 601.18V694.13L1188.41 693.96Z" fill="#ff2e2e" opacity="1" stroke-width="4" stroke="none"></path><path d="M1369.86 663.99L1369.69 601.27C1369.69 599.01 1369.69 596.65 1369.34 594.56" stroke="#1a1a1a" stroke-width="4" stroke-linecap="round" stroke-linejoin="round" opacity="1" fill="none"></path><path d="M1131.93 775.89C1169.25 738.58 1169.25 678.07 1131.93 640.75 1094.61 603.43 1034.1 603.43 996.78 640.75 959.46 678.07 959.46 738.58 996.78 775.89 1034.1 813.21 1094.61 813.21 1131.93 775.89Z" fill="#3c2c5b" opacity="1" stroke-width="4" stroke="none"></path><path d="M1064.36 736.64C1080 736.64 1092.67 723.97 1092.67 708.33 1092.67 692.69 1080 680.02 1064.36 680.02 1048.73 680.02 1036.05 692.69 1036.05 708.33 1036.05 723.97 1048.73 736.64 1064.36 736.64Z" fill="#7c7c7c" opacity="1" stroke-width="4" stroke="none"></path><path d="M511.2 803.89C563.98 803.89 606.77 761.11 606.77 708.33 606.77 655.55 563.98 612.77 511.2 612.77 458.42 612.77 415.64 655.55 415.64 708.33 415.64 761.11 458.42 803.89 511.2 803.89Z" fill="#3c2c5b" opacity="1" stroke-width="4" stroke="none"></path><path d="M511.2 736.64C526.84 736.64 539.52 723.97 539.52 708.33 539.52 692.69 526.84 680.02 511.2 680.02 495.57 680.02 482.89 692.69 482.89 708.33 482.89 723.97 495.57 736.64 511.2 736.64Z" fill="#7c7c7c" opacity="1" stroke-width="4" stroke="none"></path><path d="M636.03 727.23V708.33C636.03 703.28 635.69 698.14 635.08 693.09V692.91H940.49C940.49 693 939.53 703.28 939.53 708.33V727.23H636.03Z" fill="#cecdce" opacity="1" stroke-width="4" stroke="none"></path><path d="M392.12 513.64H422.18C431.24 513.64 438.55 520.95 438.55 530.01V560.07C438.55 569.13 431.24 576.44 422.18 576.44H392.12C383.06 576.44 375.75 569.13 375.75 560.07V530.01C375.75 520.95 383.06 513.64 392.12 513.64Z" stroke="#1a1a1a" stroke-width="4" stroke-linecap="round" stroke-linejoin="round" opacity="1" fill="none"></path><path d="M771.06 510.33V366.24H853.03C868.71 366.24 883.52 372.34 894.67 383.4L1000.07 485.93C1004.34 490.03 1005.56 496.04 1003.3 501.44 1001.12 506.93 996.07 510.33 990.14 510.33H771.06Z" fill="#f6f4f4" opacity="1" stroke-width="4" stroke="none"></path><path d="M541.34 510.33C531.59 510.33 522.96 504.93 518.61 496.21 514.25 487.5 515.3 477.31 521.22 469.56L579.85 393.25C592.83 376.35 613.39 366.24 634.73 366.24H741.79V510.33H541.34V510.33Z" fill="#f6f4f4" opacity="1" stroke-width="4" stroke="none"></path><path d="M517.39 493.25C514.51 485.15 515.91 476.27 521.22 469.56L579.85 393.25C592.83 376.35 613.39 366.24 634.73 366.24H741.79V383.14H634.73C613.47 383.14 593.09 393.16 580.11 410.06L521.48 486.37C519.83 488.46 518.61 490.81 517.65 493.34L517.48 493.77 517.39 493.25Z" fill="#1a1a1a" opacity="0.2" stroke-width="4" stroke="none"></path><path d="M1001.64 503.97C1001.12 503.18 1000.51 502.49 999.81 501.79L894.41 399.26C883.34 388.28 868.62 382.27 853.03 382.27H771.06V366.24H853.03C868.71 366.24 883.52 372.34 894.67 383.4L1000.07 485.93C1005.04 490.73 1005.82 498.3 1001.99 504.05L1001.82 504.23 1001.64 503.97Z" fill="#1a1a1a" opacity="0.2" stroke-width="4" stroke="none"></path><path d="M943.63 542.38C942.93 542.38 942.23 542.38 941.54 542.3 940.23 542.21 939.01 541.95 937.79 541.51 931.87 539.16 928.99 532.45 931.34 526.53L948.5 483.67C949.03 482.45 949.64 481.4 950.51 480.36 952.69 477.83 955.82 476.44 959.22 476.44 962.01 476.44 964.71 477.48 966.8 479.31 979.52 490.38 984.13 506.58 978.56 520.61 973.16 533.85 959.48 542.38 943.63 542.38Z" fill="#cecdce" opacity="1" stroke-width="4" stroke="none"></path><path d="M943.71 542.38C943.02 542.38 942.32 542.38 941.62 542.3 940.32 542.21 939.1 541.95 937.88 541.51 931.95 539.16 928.99 532.45 931.34 526.53L933 522.43H933.26C935.26 522.7 937.35 522.87 939.36 522.87 943.8 522.87 948.24 522.26 952.51 520.95 963.75 517.56 973.42 510.24 979.69 500.31L979.86 499.96 979.95 500.4C981.61 507.1 981.17 514.07 978.56 520.52 973.24 533.85 959.57 542.38 943.71 542.38Z" fill="#868686" opacity="0.2" stroke-width="4" stroke="none"></path><path d="M1292.16 628.88C1285.37 628.88 1279.79 623.31 1279.79 616.52 1279.79 609.72 1285.37 604.15 1292.16 604.15H1321.52C1328.31 604.15 1333.89 609.72 1333.89 616.52 1333.89 623.31 1328.31 628.88 1321.52 628.88H1292.16Z" fill="#1a1a1a" opacity="0.2" stroke-width="4" stroke="none"></path><path d="M564.78 557.37C557.98 557.37 552.41 551.79 552.41 545 552.41 538.2 557.98 532.63 564.78 532.63H594.13C600.93 532.63 606.5 538.2 606.5 545 606.5 551.79 600.93 557.37 594.13 557.37H564.78Z" fill="#cecdce" opacity="1" stroke-width="4" stroke="none"></path><path d="M807.73 557.37C800.94 557.37 795.36 551.79 795.36 545 795.36 538.2 800.94 532.63 807.73 532.63H837.09C843.88 532.63 849.46 538.2 849.46 545 849.46 551.79 843.88 557.37 837.09 557.37H807.73Z" fill="#cecdce" opacity="1" stroke-width="4" stroke="none"></path><path d="M554.06 551.18C552.93 549.26 552.41 547.17 552.41 545 552.41 538.2 557.98 532.63 564.78 532.63H594.13C596.31 532.63 598.49 533.24 600.32 534.28 603.19 535.94 605.2 538.64 606.07 541.77 606.94 544.91 606.5 548.31 604.85 551.18L604.67 551.44 604.5 551.18C602.32 547.44 598.4 545.17 594.05 545.17H564.78C560.51 545.17 556.5 547.52 554.32 551.18L554.15 551.44 554.06 551.18Z" fill="#868686" opacity="0.2" stroke-width="4" stroke="none"></path><path d="M847.72 551.18C845.54 547.44 841.62 545.17 837.26 545.17H807.91C803.64 545.17 799.63 547.52 797.45 551.18L797.28 551.44 797.1 551.18C795.97 549.26 795.45 547.17 795.45 545 795.45 538.2 801.02 532.63 807.82 532.63H837.18C839.35 532.63 841.53 533.24 843.36 534.28 849.28 537.68 851.29 545.26 847.89 551.18L847.72 551.44V551.18Z" fill="#868686" opacity="0.2" stroke-width="4" stroke="none"></path><path d="M387.07 693.09H252.05" stroke="#1a1a1a" stroke-width="4" stroke-linecap="round" stroke-linejoin="round" opacity="1" fill="none"></path><path d="M939.36 693.09H635.34" stroke="#1a1a1a" stroke-width="4" stroke-linecap="round" stroke-linejoin="round" opacity="1" fill="none"></path><path d="M1377.53 694.13L1188.41 693.96" stroke="#1a1a1a" stroke-width="4" stroke-linecap="round" stroke-linejoin="round" opacity="1" fill="none"></path><path d="M1158.18 541.86L1334.76 560.15" stroke="#1a1a1a" stroke-width="4" stroke-linecap="round" stroke-linejoin="round" opacity="1" fill="none"></path><path d="M1313.24 541.34L1307.58 535.24C1300.52 529.23 1291.81 525.4 1282.66 524.09L1270.21 522.26" stroke="#1a1a1a" stroke-width="4" stroke-linecap="round" stroke-linejoin="round" opacity="1" fill="none"></path><path d="M741.79 366.24L755.99 366.42 771.06 366.24" stroke="#1a1a1a" stroke-width="4" stroke-linecap="round" stroke-linejoin="round" opacity="1" fill="none"></path><path d="M755.99 693.09V366.42" stroke="#1a1a1a" stroke-width="4" stroke-linecap="round" stroke-linejoin="round" opacity="1" fill="none"></path><path d="M1292.16 619.3C1285.37 619.3 1279.79 613.73 1279.79 606.93 1279.79 600.14 1285.37 594.56 1292.16 594.56H1321.52C1328.31 594.56 1333.89 600.14 1333.89 606.93 1333.89 613.73 1328.31 619.3 1321.52 619.3H1292.16Z" fill="#3c2c5b" opacity="1" stroke-width="4" stroke="none"></path><path d="M261.45 551.01V620.78" stroke="#1a1a1a" stroke-width="4" stroke-linecap="round" stroke-linejoin="round" opacity="1" fill="none"></path></g><g><path d="M1122.75 620.04H1100.29V1061.35H1122.75V620.04Z" fill="#8aafff" opacity="1" stroke-width="4" stroke="none"></path><path d="M1100.29 668.54H1122.75V696.74L1100.29 705.85V668.54Z" fill="#1d376e" opacity="0.2" stroke-width="4" stroke="none"></path><path d="M1141.66 667.84L1221.43 529.58C1234.89 506.32 1218.06 477.23 1191.24 477.23H1031.6C1004.78 477.23 987.95 506.32 1001.41 529.58L1081.18 667.84C1094.74 691.1 1128.3 691.1 1141.66 667.84Z" fill="#80c6ff" opacity="1" stroke-width="4" stroke="none"></path><path d="M1191.34 497.02C1199.65 497.02 1206.38 503.75 1206.38 512.06 1206.38 514.74 1205.69 517.31 1204.4 519.59L1124.63 657.85C1120.48 665.07 1111.27 667.55 1104.05 663.39 1101.77 662.1 1099.89 660.13 1098.5 657.85L1018.73 519.59C1014.58 512.36 1017.05 503.16 1024.28 499 1026.55 497.71 1029.13 497.02 1031.8 497.02H1191.34ZM1191.34 477.23H1031.7C1004.88 477.23 988.05 506.32 1001.51 529.58L1081.28 667.84C1090.88 684.57 1112.26 690.21 1128.89 680.61 1134.23 677.54 1138.59 673.19 1141.66 667.84L1221.43 529.58C1234.99 506.32 1218.16 477.23 1191.34 477.23Z" fill="#ff6933" opacity="1" stroke-width="4" stroke="none"></path><path d="M1100.19 683.48C1107.51 685.96 1115.43 685.96 1122.75 683.48" stroke="#000000" stroke-width="4" stroke-linecap="round" stroke-linejoin="round" opacity="1" fill="none"></path></g><g><path d="M1053.63 950.53L1053.75 1061.16H1256.88L1256.94 950.23 1053.63 950.53Z" fill="#ff6933" opacity="1" stroke-width="4" stroke="none"></path><path d="M1053.75 961.66H1256.88V1001.52L1053.75 967.19V961.66Z" fill="#722c12" opacity="0.3" stroke-width="4" stroke="none"></path><path d="M1053.69 961.66C1015.48 933.98 1052.58 889.83 1099.68 913.96 1099.68 913.96 1104.98 893.36 1128.53 898.66 1128.53 898.66 1137.36 871.57 1164.44 871.57 1194.47 871.57 1202.71 913.38 1202.71 913.38 1202.71 913.38 1219.79 904.54 1230.38 921.62 1230.38 921.62 1252.76 908.2 1268.65 925.15 1277.49 934.57 1273.36 948.11 1269.83 952.82 1264.06 960.54 1256.88 961.66 1256.88 961.66H1053.69Z" fill="#3c2c5b" opacity="1" stroke-width="4" stroke="none"></path><path d="M1053.69 961.66C1028.38 943.34 1036.09 917.79 1057.87 909.61 1057.87 909.61 1080.66 913.38 1087.67 944.46 1087.67 944.46 1108.8 915.85 1136.42 932.92 1136.42 932.92 1143.54 913.38 1170.62 913.38 1191.7 913.38 1198.65 932.69 1198.65 932.69 1198.65 932.69 1223.26 926.62 1233.86 943.7 1233.86 943.7 1246.93 923.5 1268.59 925.21 1277.43 934.63 1273.31 948.17 1269.77 952.88 1264 960.6 1256.88 961.66 1256.88 961.66H1053.69Z" fill="#333333" opacity="0.3" stroke-width="4" stroke="none"></path><path d="M1099.68 913.96C1105.03 916.79 1109.86 920.56 1113.87 925.09" stroke="#000000" stroke-width="4" stroke-linecap="round" stroke-linejoin="round" opacity="1" fill="none"></path><path d="M1128.53 898.66C1127.82 900.95 1127.23 903.31 1126.82 905.66" stroke="#000000" stroke-width="4" stroke-linecap="round" stroke-linejoin="round" opacity="1" fill="none"></path><path d="M1202.71 913.38C1197.47 915.67 1193.94 920.97 1192.76 923.92" stroke="#000000" stroke-width="4" stroke-linecap="round" stroke-linejoin="round" opacity="1" fill="none"></path><path d="M1230.38 921.62C1232.21 924.33 1233.45 927.45 1233.92 930.69" stroke="#000000" stroke-width="4" stroke-linecap="round" stroke-linejoin="round" opacity="1" fill="none"></path><path d="M1053.81 961.6H1256.94" stroke="#000000" stroke-width="4" stroke-linecap="round" stroke-linejoin="round" opacity="1" fill="none"></path><path d="M1053.81 992.8H1256.94" stroke="#000000" stroke-width="4" stroke-linecap="round" stroke-linejoin="round" opacity="1" fill="none"></path><path d="M1155.37 1061.1V992.8" stroke="#000000" stroke-width="4" stroke-linecap="round" stroke-linejoin="round" opacity="1" fill="none"></path><path d="M1189.23 1061.1V992.8" stroke="#000000" stroke-width="4" stroke-linecap="round" stroke-linejoin="round" opacity="1" fill="none"></path><path d="M1223.08 1061.1V992.8" stroke="#000000" stroke-width="4" stroke-linecap="round" stroke-linejoin="round" opacity="1" fill="none"></path><path d="M1121.52 1061.1V992.8" stroke="#000000" stroke-width="4" stroke-linecap="round" stroke-linejoin="round" opacity="1" fill="none"></path><path d="M1087.67 1061.1V992.8" stroke="#000000" stroke-width="4" stroke-linecap="round" stroke-linejoin="round" opacity="1" fill="none"></path></g><g><path d="M727.71 719.5H671.68V862.69H727.71V719.5Z" stroke="#3c2c5b" stroke-width="4" stroke-linecap="round" stroke-linejoin="round" opacity="1" fill="none"></path><path d="M666.79 723.68C661.01 723.68 656.38 719.06 656.38 713.28 656.38 707.5 661.01 702.87 666.79 702.87H732.6C738.38 702.87 743 707.5 743 713.28 743 719.06 738.38 723.68 732.6 723.68H666.79Z" fill="#8aafff" opacity="1" stroke-width="4" stroke="none"></path><path d="M649.44 1040.73C628.81 1040.73 611.92 1023.92 611.92 1003.2V860.02C611.92 839.39 628.72 822.49 649.44 822.49H749.94C770.57 822.49 787.47 839.3 787.47 860.02V1003.2C787.47 1023.83 770.66 1040.73 749.94 1040.73H649.44Z" fill="#ff6933" opacity="1" stroke-width="4" stroke="none"></path><path d="M667.23 1021.16C653.89 1021.16 643.04 1010.31 643.04 996.97V932.05C643.04 918.71 653.89 907.86 667.23 907.86H732.15C745.49 907.86 756.34 918.71 756.34 932.05V996.97C756.34 1010.31 745.49 1021.16 732.15 1021.16H667.23Z" fill="#515151" opacity="0.2" stroke-width="4" stroke="none"></path><path d="M667.23 1009.6C653.89 1009.6 643.04 998.75 643.04 985.41V920.49C643.04 907.15 653.89 896.3 667.23 896.3H732.15C745.49 896.3 756.34 907.15 756.34 920.49V985.41C756.34 998.75 745.49 1009.6 732.15 1009.6H667.23Z" fill="#8aafff" opacity="1" stroke-width="4" stroke="none"></path><path d="M630.77 1061.18C641.18 1061.18 649.62 1052.74 649.62 1042.33 649.62 1031.92 641.18 1023.48 630.77 1023.48 620.35 1023.48 611.92 1031.92 611.92 1042.33 611.92 1052.74 620.35 1061.18 630.77 1061.18Z" fill="#3c2c5b" opacity="1" stroke-width="4" stroke="none"></path><path d="M768.61 1061.18C779.03 1061.18 787.47 1052.74 787.47 1042.33 787.47 1031.92 779.03 1023.48 768.61 1023.48 758.2 1023.48 749.76 1031.92 749.76 1042.33 749.76 1052.74 758.2 1061.18 768.61 1061.18Z" fill="#3c2c5b" opacity="1" stroke-width="4" stroke="none"></path><path d="M643.22 938.28H756.16" stroke="#3c2c5b" stroke-width="4" stroke-linecap="round" stroke-linejoin="round" opacity="1" fill="none"></path></g><g><path d="M407.44 488.77C407.44 483.74 407.44 476.46 407.44 468.51 407.44 450.09 408.44 428.91 408.53 422.38 408.61 408.82 418.49 406.72 426.19 400.36 432.89 394.75 435.49 391.74 447.62 391.74 448.71 391.74 449.8 385.29 450.97 385.38 469.73 386.21 484.38 391.24 490.99 404.38 493.67 409.74 494.25 417.77 494.84 426.31 495.01 429.24 495.26 432.26 495.51 435.27 495.51 435.27 502.54 438.54 502.71 441.63 502.79 443.14 501.7 445.65 496.18 449.5L495.84 449.75 495.93 451.01C496.6 460.89 497.27 471.02 490.57 478.72 485.71 484.33 479.1 485.59 474.41 485.59 470.39 485.59 466.13 484.66 462.11 483.07V489.27L407.36 489.19 407.44 488.77Z" fill="#cea482" opacity="1" stroke-width="4" stroke="none"></path><path d="M448.8 476.13L462.19 482.99V495.46L448.8 476.13Z" fill="#191919" opacity="0.3" stroke-width="4" stroke="none"></path><path d="M409.2 478.39C408.03 478.39 407.36 478.3 407.36 478.3 406.94 456.12 407.36 420.96 407.36 420.62 407.44 407.06 423.93 405.38 431.63 399.02 438.33 393.41 435.49 391.66 447.62 391.66 448.71 391.66 449.8 391.74 450.97 391.82 469.73 392.66 484.29 390.99 490.91 404.13 492.41 407.06 493.17 410.66 493.92 415.43 493.92 415.43 492.16 416.27 488.98 416.27 484.46 416.27 477.01 414.59 467.3 406.72 470.9 414.09 471.73 419.28 469.89 422.3 468.72 424.22 466.46 425.14 463.11 425.14 458.67 425.14 453.82 423.38 453.82 423.3 453.82 423.38 452.98 429.66 450.22 433.93 449.8 434.52 449.05 434.69 448.46 434.35 445.95 432.76 439.08 428.91 432.55 428.91 428.45 428.91 425.1 430.42 422.68 433.35 419.83 436.69 418.57 440.55 419.08 444.82 420.33 456.62 434.23 467.92 435.65 469.01 435.74 469.09 435.74 469.18 435.65 469.18 427.28 477.46 414.39 478.39 409.2 478.39Z" fill="#996b4d" opacity="1" stroke-width="4" stroke="none"></path><path d="M329.92 1022.79C328.08 998.1 329.08 973.23 333.02 949.12L383.5 894.71 413.47 949.12C409.62 964.03 406.77 977.25 404.84 988.47L378.14 1036.19 329.92 1022.79Z" fill="#cea482" opacity="1" stroke-width="4" stroke="none"></path><path d="M451.31 1022.79C446.7 993.49 445.2 971.64 445.78 948.62L486.47 884.66 524.39 948.62C523.55 963.36 522.89 976.33 522.63 988.64L498.86 1039.12 451.31 1022.79Z" fill="#cea482" opacity="1" stroke-width="4" stroke="none"></path><path d="M332.85 1047.91C331.51 1039.7 330.5 1031.25 329.92 1022.79H375.21L373.12 1001.7C373.03 1001.28 373.03 1000.94 373.03 1000.53 373.03 993.83 378.47 988.47 385.09 988.47H404.84C403.76 995.33 403.09 1000.61 402.75 1005.21 401.83 1018.86 412.88 1027.31 422.68 1034.77 424.85 1036.44 426.86 1037.95 428.7 1039.54 431.3 1041.8 433.39 1043.89 435.49 1047.24L435.82 1047.91 434.98 1049.58H335.11L332.85 1047.91Z" fill="#8aafff" opacity="1" stroke-width="4" stroke="none"></path><path d="M334.94 1061.3C334.27 1057.95 333.77 1054.61 333.35 1051.34 333.18 1050.17 333.02 1049.08 332.85 1047.91H435.82C438.08 1051.84 439.34 1056.36 439.59 1061.3H334.94Z" fill="#ffffff" opacity="1" stroke-width="4" stroke="none"></path><path d="M455.74 1047.91C453.99 1037.95 452.48 1029.99 451.31 1022.79H498.36L496.26 1001.7C496.18 1001.28 496.18 1000.94 496.18 1000.53 496.18 993.83 501.62 988.47 508.23 988.47H522.63C522.55 992.57 522.47 996.84 522.47 1001.03 522.47 1018.78 534.94 1027.23 545.07 1034.01 547.83 1035.94 550.51 1037.7 552.6 1039.54 555.2 1041.8 559.55 1047.91 559.55 1047.91L557.21 1051.34 457.92 1049.5 455.74 1047.91Z" fill="#8aafff" opacity="1" stroke-width="4" stroke="none"></path><path d="M458.25 1061.3C458.08 1061.3 458 1061.22 457.91 1061.05 457.33 1058.21 456.82 1055.44 456.49 1052.76 456.24 1051.26 455.99 1049.75 455.82 1048.24 455.82 1048.08 455.9 1047.91 456.15 1047.91H559.54C559.63 1047.91 559.8 1047.99 559.8 1048.08 561.97 1052.01 563.23 1056.45 563.48 1061.3H458.25Z" fill="#ffffff" opacity="1" stroke-width="4" stroke="none"></path><path d="M493.17 949.12L483.12 901.41 469.73 949.12 445.78 948.62C446.2 933.3 447.62 917.56 450.47 896.38 456.92 848.33 443.94 814.42 432.55 784.54 425.02 764.78 417.9 746.11 416.98 725.6 414.47 669.34 431.89 645.48 432.05 645.23H490.65C491.07 646.32 527.49 756.99 527.49 865.41 527.49 892.78 526.07 917.81 524.64 942.01L524.39 948.45C524.39 948.54 524.31 948.62 524.22 948.62L493.17 949.12Z" fill="#80c6ff" opacity="1" stroke-width="4" stroke="none"></path><path d="M452.14 868.5C451.64 834.77 441.93 809.32 432.55 784.7 425.02 764.95 417.9 746.28 416.98 725.77 416.4 713.29 418.24 704.76 422.51 700.32 424.77 697.89 427.78 696.72 431.47 696.72 433.89 696.72 436.66 697.3 439.67 698.39 453.99 703.58 463.61 716.89 464.2 732.38 465.04 751.64 464.62 776.33 463.03 807.89 461.86 830.5 452.23 868.09 452.14 868.5Z" fill="#3a444d" opacity="0.3" stroke-width="4" stroke="none"></path><path d="M379.98 949.12L377.72 901.41 358.05 949.12H333.02C336.36 928.19 341.89 907.35 349.17 887.17 366 840.46 364.58 825.47 361.14 789.39 359.97 777.34 358.55 762.44 357.54 743.18 355.79 709.44 363.91 684.58 370.94 669.59 378.56 653.35 386.76 645.07 386.85 644.98H463.03C463.03 645.4 460.52 683.07 455.91 728.61 451.73 770.72 444.86 828.24 436.24 863.73 433.22 876.04 429.37 890.27 425.19 905.42 421.25 919.82 417.32 934.14 413.72 948.45L413.47 949.12H379.98V949.12Z" fill="#80c6ff" opacity="1" stroke-width="4" stroke="none"></path><path d="M404.38 1017.73L391.95 1024.3" stroke="#ffffff" stroke-width="4" stroke-linecap="round" stroke-linejoin="round" opacity="1" fill="none"></path><path d="M411.84 1026.07L400.83 1035.85" stroke="#ffffff" stroke-width="4" stroke-linecap="round" stroke-linejoin="round" opacity="1" fill="none"></path><path d="M526.9 1019.74L514.09 1026.98" stroke="#ffffff" stroke-width="4" stroke-linecap="round" stroke-linejoin="round" opacity="1" fill="none"></path><path d="M535.57 1027.54L524.98 1036.19" stroke="#ffffff" stroke-width="4" stroke-linecap="round" stroke-linejoin="round" opacity="1" fill="none"></path><path d="M357.38 727.02C357.88 711.28 360.98 695.8 366.25 680.98L397.73 681.23 389.94 704.59C385.92 716.64 375.54 725.1 362.9 726.61L357.38 727.27V727.02 727.02Z" fill="#3a444d" opacity="1" stroke-width="4" stroke="none"></path><path d="M444.69 819.53C449.3 790.98 452.56 762.1 455.58 732.55" stroke="#3a444d" stroke-width="4" stroke-linecap="round" stroke-linejoin="round" opacity="1" fill="none"></path><path d="M637.07 609.23C632.14 609.23 626.86 608.4 621.25 606.72L599.49 558.17C610.79 553.31 622.59 550.13 629.71 548.29L630.54 548.04C638.58 545.86 647.62 544.52 653.57 544.52 659.34 544.52 662.36 545.78 662.36 548.04 662.36 551.22 657.84 555.32 651.47 558.08 651.64 558.17 664.87 569.05 664.03 575.66L655.66 584.04 654.82 604.13C654.74 604.3 648.96 609.23 637.07 609.23Z" fill="#cea482" opacity="1" stroke-width="4" stroke="none"></path><path d="M599.57 558.17C576.38 567.29 540.47 586.46 540.13 586.63 539.88 586.13 512.67 533.72 499.11 518.82 483.71 501.91 466.04 498.48 462.19 497.98V488.68H407.44L407.36 495.38C380.48 496.22 367.09 505.59 358.47 513.8L353.11 519.41 386.93 645.23H490.74L492.33 623.47C503.3 637.11 517.36 646.15 529.16 646.91 530.5 646.99 531.93 647.07 533.27 647.07 568.18 647.07 606.43 618.86 621.34 606.72L599.57 558.17Z" fill="#ff6933" opacity="1" stroke-width="4" stroke="none"></path><path d="M386.85 645.23L367 570.39 386.01 573.24 428.7 645.23H386.85Z" fill="#54352a" opacity="0.3" stroke-width="4" stroke="none"></path><path d="M443.35 393.25C449.13 393.25 453.82 388.56 453.82 382.78 453.82 377 449.13 372.32 443.35 372.32 437.57 372.32 432.89 377 432.89 382.78 432.89 388.56 437.57 393.25 443.35 393.25Z" fill="#ffffff" opacity="1" stroke-width="4" stroke="none"></path><path d="M462.19 482.99C458.51 481.23 454.24 478.89 450.55 477.05" stroke="#191919" stroke-width="4" stroke-linecap="round" stroke-linejoin="round" opacity="1" fill="none"></path><path d="M443.51 453.1L435.31 447.16" stroke="#191919" stroke-width="4" stroke-linecap="round" stroke-linejoin="round" opacity="1" fill="none"></path><path d="M486.3 456.95C483.29 456.03 480.61 454.19 478.6 451.68" stroke="#191919" stroke-width="4" stroke-linecap="round" stroke-linejoin="round" opacity="1" fill="none"></path><path d="M484.21 437.2C485.73 437.2 486.97 435.96 486.97 434.43 486.97 432.91 485.73 431.67 484.21 431.67 482.68 431.67 481.45 432.91 481.45 434.43 481.45 435.96 482.68 437.2 484.21 437.2Z" fill="#000000" opacity="1" stroke-width="4" stroke="none"></path><path d="M407.11 451.85C407.02 442.14 407.19 432.68 407.27 426.48 407.27 423.8 407.27 421.63 407.27 420.2 407.36 406.64 411.37 396.51 419.08 390.15 425.77 384.54 435.32 381.69 447.46 381.69 448.54 381.69 449.72 381.69 450.89 381.78 469.64 382.61 484.29 390.65 490.91 403.79 492.75 407.31 493.84 411.66 494.42 417.77 494.42 417.94 494.34 418.11 494.17 418.19L450.14 435.36C450.05 435.44 448.63 434.43 448.54 434.35 447.37 433.43 440.51 429.24 432.89 429.24 430.13 429.24 427.53 430 425.44 431.42 418.16 436.19 419.24 444.9 419.5 446.66 419.5 446.82 419.41 446.99 419.24 447.08L407.19 451.68 407.11 451.85Z" fill="#8aafff" opacity="1" stroke-width="4" stroke="none"></path><path d="M514.35 410.32L450.14 435.36" stroke="#588dff" stroke-width="4" stroke-linecap="round" stroke-linejoin="round" opacity="1" fill="none"></path><path d="M447.03 606.3L452.14 594.17C456.15 593.41 460.34 592.99 464.19 592.99 470.64 592.99 475.07 594.08 476.08 596.01 476.41 596.68 476.33 597.51 475.66 598.35 472.06 603.29 464.02 606.3 463.94 606.3H447.03Z" fill="#cea482" opacity="1" stroke-width="4" stroke="none"></path><path d="M430.8 715.55L461.77 539.75H654.32L623.34 715.55H430.8Z" fill="#8aafff" opacity="1" stroke-width="4" stroke="none"></path><path d="M557.88 539.75L526.82 715.55" stroke="#000000" stroke-width="4" stroke-linecap="round" stroke-linejoin="round" opacity="1" fill="none"></path><path d="M515.94 677.04H456.33L465.96 622.63H525.56L515.94 677.04Z" fill="#dcdcdc" opacity="1" stroke-width="4" stroke="none"></path><path d="M619.75 638.54H560.14L569.77 584.12H629.37L619.75 638.54Z" fill="#dcdcdc" opacity="1" stroke-width="4" stroke="none"></path><path d="M452.98 695.46H512.42" stroke="#000000" stroke-width="4" stroke-linecap="round" stroke-linejoin="round" opacity="1" fill="none"></path><path d="M476.42 560.68H535.86" stroke="#000000" stroke-width="4" stroke-linecap="round" stroke-linejoin="round" opacity="1" fill="none"></path><path d="M574.37 560.68H633.81" stroke="#000000" stroke-width="4" stroke-linecap="round" stroke-linejoin="round" opacity="1" fill="none"></path><path d="M550.09 695.46H609.53" stroke="#000000" stroke-width="4" stroke-linecap="round" stroke-linejoin="round" opacity="1" fill="none"></path><path d="M508.65 584.12H532.51" stroke="#000000" stroke-width="4" stroke-linecap="round" stroke-linejoin="round" opacity="1" fill="none"></path><path d="M473.07 584.12H496.93" stroke="#000000" stroke-width="4" stroke-linecap="round" stroke-linejoin="round" opacity="1" fill="none"></path><path d="M506.14 599.19H530" stroke="#000000" stroke-width="4" stroke-linecap="round" stroke-linejoin="round" opacity="1" fill="none"></path><path d="M470.56 599.19H494.42" stroke="#000000" stroke-width="4" stroke-linecap="round" stroke-linejoin="round" opacity="1" fill="none"></path><path d="M591.53 661.14H615.39" stroke="#000000" stroke-width="4" stroke-linecap="round" stroke-linejoin="round" opacity="1" fill="none"></path><path d="M555.95 661.14H579.81" stroke="#000000" stroke-width="4" stroke-linecap="round" stroke-linejoin="round" opacity="1" fill="none"></path><path d="M589.02 676.21H612.88" stroke="#000000" stroke-width="4" stroke-linecap="round" stroke-linejoin="round" opacity="1" fill="none"></path><path d="M553.44 676.21H577.3" stroke="#000000" stroke-width="4" stroke-linecap="round" stroke-linejoin="round" opacity="1" fill="none"></path><path d="M636.24 618.78C632.64 618.78 630.21 617.61 629.46 615.43 628.62 613.09 629.87 609.82 632.39 607.64 632.39 607.64 629.2 604.8 629.54 601.53 629.71 599.86 632.39 597.43 633.31 596.59 633.47 596.43 633.47 596.17 633.31 596.01 632.47 595.09 630.13 592.24 630.8 589.23 631.3 586.88 633.31 584.96 636.91 583.53 637.16 583.45 637.33 583.11 637.24 582.86 636.66 581.27 635.4 575.92 641.68 572.65 641.68 572.65 641.68 572.65 641.76 572.65 644.02 571.73 646.28 571.14 648.63 570.98 648.79 570.98 648.96 570.81 648.96 570.64L651.39 558.67C651.47 558.42 651.81 558.25 651.98 558.42 654.32 560.18 664.2 568.3 664.28 575.75 664.28 579.6 662.27 583.03 658.84 584.87 658.84 584.87 661.44 587.8 661.1 591.4 660.93 593.66 659.59 595.76 657.33 597.6 657.33 597.6 658 599.86 657.33 602.54 656.75 604.96 654.82 608.23 649.38 609.9 649.38 609.9 650.22 611.75 649.21 613.67 648.04 616.02 644.86 617.61 639.84 618.44 638.5 618.69 637.24 618.78 636.24 618.78Z" fill="#cea482" opacity="1" stroke-width="4" stroke="none"></path><path d="M658.75 584.79C651.63 585.88 644.35 585.46 637.48 583.37" stroke="#191919" stroke-width="4" stroke-linecap="round" stroke-linejoin="round" opacity="1" fill="none"></path><path d="M657.25 597.6C651.47 599.69 640.93 598.6 633.56 596.51" stroke="#191919" stroke-width="4" stroke-linecap="round" stroke-linejoin="round" opacity="1" fill="none"></path><path d="M648.88 609.99C645.03 610.07 636.66 609.4 632.3 607.81" stroke="#191919" stroke-width="4" stroke-linecap="round" stroke-linejoin="round" opacity="1" fill="none"></path><path d="M481.44 660.47C472.56 660.47 449.79 652.01 449.62 651.93 443.43 654.44 437.4 655.61 431.63 655.61 421.83 655.61 415.72 651.6 415.64 651.6L419.91 602.62C433.13 596.84 451.97 594.08 452.14 594.08L450.46 604.96C463.61 605.8 476.58 607.73 488.97 610.83 500.44 613.67 504.38 617.86 505.71 620.79 507.14 624.05 505.71 626.73 505.71 626.73 507.39 628.82 508.06 631.08 507.72 633.26 507.14 637.36 503.2 640.13 503.2 640.13 503.54 641.88 503.2 643.47 502.2 644.73 500.02 647.33 494.92 648.66 486.88 648.66 480.26 648.66 473.99 647.66 473.82 647.66 474.07 647.74 483.86 652.43 485.12 656.87 485.37 657.79 485.2 658.63 484.7 659.38 484.37 660.13 483.2 660.47 481.44 660.47Z" fill="#cea482" opacity="1" stroke-width="4" stroke="none"></path><path d="M388.52 574.07L367.59 599.19 420.33 602.54 416.15 651.93C415.9 652.01 386.26 660.39 357.54 660.39 329.08 660.39 311.33 652.43 304.8 636.86 286.8 594 346.08 525.52 358.47 513.8" fill="#ff6933" opacity="1" stroke-width="4" stroke="none"></path><path d="M332.01 657.62C318.11 654.02 308.99 647.07 304.72 636.94 300.53 627.15 300.2 615.18 303.72 601.37 322.8 604.21 336.62 620.29 336.62 639.46 336.62 645.65 335.03 651.93 332.01 657.62Z" fill="#ffe4da" opacity="1" stroke-width="4" stroke="none"></path><path d="M505.72 625.98C491.49 621.79 461.35 616.77 461.35 616.77" stroke="#191919" stroke-width="4" stroke-linecap="round" stroke-linejoin="round" opacity="1" fill="none"></path><path d="M503.21 638.54C498.19 636.86 458 629.33 458 629.33" stroke="#191919" stroke-width="4" stroke-linecap="round" stroke-linejoin="round" opacity="1" fill="none"></path><path d="M474.75 647.74L455.49 642.72" stroke="#191919" stroke-width="4" stroke-linecap="round" stroke-linejoin="round" opacity="1" fill="none"></path><path d="M372.87 592.91L388.52 574.07" stroke="#54352a" stroke-width="4" stroke-linecap="round" stroke-linejoin="round" opacity="1" fill="none"></path><path d="M367.58 599.19L349.92 604.96" stroke="#54352a" stroke-width="4" stroke-linecap="round" stroke-linejoin="round" opacity="1" fill="none"></path></g></svg>