<svg xmlns="http://www.w3.org/2000/svg" height="1200" width="1600" version="1.1" xmlns:xlink="http://www.w3.org/1999/xlink" xmlns:svgjs="http://svgjs.com/svgjs"><rect fill="#ffffff" width="1600" height="1200"></rect><g><path d="M492.66 271.01H410.84C410.84 271.01 401.39 319.37 429.86 345.02H511.67C483.2 319.37 492.66 271.01 492.66 271.01Z" fill="#ffa0dc" opacity="1" stroke-width="4" stroke="none"></path><path d="M377.98 229.17H296.17C296.17 229.17 286.71 277.54 315.18 303.19H397C368.43 277.54 377.98 229.17 377.98 229.17Z" fill="#b30000" opacity="1" stroke-width="4" stroke="none"></path></g><g><path d="M887.95 696.53H749.84V767.25H887.95V696.53Z" fill="#3c2c5b" opacity="1" stroke-width="4" stroke="none"></path><path d="M887.95 766.41H749.84V837.13H887.95V766.41Z" fill="#3c2c5b" opacity="1" stroke-width="4" stroke="none"></path><path d="M749.84 696.53H887.95V739.04L749.84 702.27V696.53Z" fill="#ffffff" opacity="0.2" stroke-width="4" stroke="none"></path><path d="M749.84 766.41H887.95V808.93L749.84 772.15V766.41Z" fill="#ffffff" opacity="0.2" stroke-width="4" stroke="none"></path><path d="M802.42 766.41H835.45C835.45 775.48 828.04 782.89 818.98 782.89 809.82 782.97 802.42 775.57 802.42 766.41Z" fill="#231f20" opacity="1" stroke-width="4" stroke="none"></path><path d="M802.42 696.53H835.45C835.45 705.6 828.04 713 818.98 713 809.82 713 802.42 705.68 802.42 696.53Z" fill="#231f20" opacity="1" stroke-width="4" stroke="none"></path><path d="M496.25 570.07H924.47C962.66 570.07 993.61 601.02 993.61 639.29V682.47H427.03V639.29C427.03 601.02 457.98 570.07 496.25 570.07Z" fill="#ffffff" opacity="1" stroke-width="4" stroke="none"></path><path d="M993.61 693.62H887.45V1014.76H993.61V693.62Z" fill="#ffffff" opacity="1" stroke-width="4" stroke="none"></path><path d="M887.45 693.62H989.37C991.45 693.62 992.94 695.7 992.28 697.69L887.7 1014.01C887.61 1014.18 887.45 1014.09 887.45 1014.01V693.62Z" fill="#ababab" opacity="0.2" stroke-width="4" stroke="none"></path><path d="M533.19 693.62H427.03V1014.76H533.19V693.62Z" fill="#ffffff" opacity="1" stroke-width="4" stroke="none"></path><path d="M993.61 678.22H427.03V696.53H993.61V678.22Z" fill="#3c2c5b" opacity="1" stroke-width="4" stroke="none"></path><path d="M749.84 766.41L887.12 766.25" stroke="#000000" stroke-width="4" stroke-linecap="round" stroke-linejoin="round" opacity="1" fill="none"></path><path d="M427.03 696.53L993.61 696.36" stroke="#000000" stroke-width="4" stroke-linecap="round" stroke-linejoin="round" opacity="1" fill="none"></path></g><g><path d="M787.72 678.11H682.46L675.71 639.9 668.95 601.44H774.21L776.68 615.34 787.72 678.11Z" fill="#ad4200" opacity="1" stroke-width="4" stroke="none"></path><path d="M675.71 639.9L668.95 601.44H774.21L776.68 615.34 675.71 639.9Z" fill="#000000" opacity="0.2" stroke-width="4" stroke="none"></path><path d="M859.58 608.71H586.17C567.98 608.71 550.7 594.03 547.45 575.84L514.31 388.19C511.06 370 523.28 355.32 541.34 355.32L814.88 355.32C833.07 355.32 850.36 370 853.6 388.19L886.61 575.97C889.86 594.03 877.77 608.71 859.58 608.71Z" fill="#ad4200" opacity="1" stroke-width="4" stroke="none"></path><path d="M845.42 588.96H593.32C581.62 588.96 570.58 579.48 568.5 567.91L538.22 396.38C536.14 384.69 543.94 375.33 555.64 375.33L807.73 375.33C819.43 375.33 830.47 384.82 832.55 396.38L862.83 567.91C864.78 579.48 856.98 588.96 845.42 588.96Z" fill="#ffffff" opacity="1" stroke-width="4" stroke="none"></path><path d="M775.51 608.71H670.25" stroke="#000000" stroke-width="4" stroke-linecap="round" stroke-linejoin="round" opacity="1" fill="none"></path></g><g><path d="M1167.83 375.89H1241.27C1254.41 375.89 1265.07 386.55 1265.11 399.73V448.24C1265.11 461.42 1254.45 472.08 1241.27 472.08L1198.7 472.08 1175.54 487.89C1175.14 488.17 1174.66 488.33 1174.18 488.33 1172.83 488.33 1171.75 487.25 1171.75 485.9V472.08H1167.83C1154.66 472.08 1144 461.42 1144 448.24V399.73C1144 386.55 1154.66 375.89 1167.83 375.89Z" fill="#ffa0dc" opacity="1" stroke-width="4" stroke="none"></path><path d="M1198.7 472.08L1195.07 474.56 1171.75 478.95V472.08H1198.7Z" fill="#313131" opacity="0.2" stroke-width="4" stroke="none"></path><path d="M1193.95 423.96L1186.88 416.9C1183.97 413.98 1183.97 409.23 1186.88 406.31 1189.8 403.4 1194.55 403.4 1197.46 406.31L1204.53 413.38 1211.6 406.31C1214.51 403.4 1219.27 403.4 1222.18 406.31 1225.1 409.23 1225.1 413.98 1222.18 416.9L1215.11 423.96 1222.14 430.99C1225.06 433.91 1225.06 438.66 1222.14 441.57 1219.23 444.49 1214.47 444.49 1211.56 441.57L1204.53 434.54 1197.5 441.57C1194.59 444.49 1189.84 444.49 1186.92 441.57 1184.01 438.66 1184.01 433.91 1186.92 430.99L1193.95 423.96Z" fill="#ffffff" opacity="1" stroke-width="4" stroke="none"></path></g><g><path d="M621.05 425.82H683.38C687.35 425.82 691.13 429.05 691.81 433.02 692.49 436.98 689.82 440.21 685.85 440.21H623.52C619.55 440.21 615.77 436.98 615.09 433.02 614.41 429.05 617.08 425.82 621.05 425.82Z" fill="#5c7cff" opacity="1" stroke-width="4" stroke="none"></path><path d="M626.15 455.55H662.59C666.56 455.55 670.34 458.78 671.02 462.75 671.7 466.71 669.03 469.94 665.06 469.94H628.62C624.65 469.94 620.87 466.71 620.19 462.75 619.51 458.78 622.19 455.55 626.15 455.55Z" fill="#abb5dc" opacity="1" stroke-width="4" stroke="none"></path><path d="M686.57 455.55H698.08C702.04 455.55 705.82 458.78 706.5 462.75 707.18 466.71 704.51 469.94 700.55 469.94H689.04C685.07 469.94 681.29 466.71 680.61 462.75 679.93 458.78 682.6 455.55 686.57 455.55Z" fill="#3c2c5b" opacity="1" stroke-width="4" stroke="none"></path><path d="M631.25 485.28H640.2C644.17 485.28 647.95 488.51 648.63 492.48 649.31 496.44 646.64 499.67 642.67 499.67H633.72C629.76 499.67 625.98 496.44 625.29 492.48 624.61 488.51 627.29 485.28 631.25 485.28Z" fill="#abb5dc" opacity="1" stroke-width="4" stroke="none"></path><path d="M664.18 485.28H717.88C721.85 485.28 725.63 488.51 726.31 492.48 726.99 496.44 724.32 499.67 720.35 499.67H666.65C662.68 499.67 658.9 496.44 658.22 492.48 657.54 488.51 660.22 485.28 664.18 485.28Z" fill="#3c2c5b" opacity="1" stroke-width="4" stroke="none"></path><path d="M741.86 485.28H787.89C791.86 485.28 795.64 488.51 796.32 492.48 797 496.44 794.33 499.67 790.36 499.67H744.33C740.37 499.67 736.58 496.44 735.9 492.48 735.22 488.51 737.9 485.28 741.86 485.28Z" fill="#d6dbee" opacity="1" stroke-width="4" stroke="none"></path><path d="M636.36 515.01H665.13C669.09 515.01 672.87 518.24 673.55 522.21 674.23 526.17 671.56 529.4 667.6 529.4H638.83C634.86 529.4 631.08 526.17 630.4 522.21 629.72 518.24 632.39 515.01 636.36 515.01Z" fill="#030303" opacity="1" stroke-width="4" stroke="none"></path><path d="M689.1 515.01H695.5C699.46 515.01 703.24 518.24 703.92 522.21 704.6 526.17 701.93 529.4 697.96 529.4H691.57C687.61 529.4 683.82 526.17 683.14 522.21 682.46 518.24 685.14 515.01 689.1 515.01Z" fill="#abb5dc" opacity="1" stroke-width="4" stroke="none"></path><path d="M719.47 515.01H757.51C761.48 515.01 765.26 518.24 765.94 522.21 766.62 526.17 763.95 529.4 759.98 529.4H721.94C717.98 529.4 714.19 526.17 713.51 522.21 712.83 518.24 715.51 515.01 719.47 515.01Z" fill="#5c7cff" opacity="1" stroke-width="4" stroke="none"></path></g><g><path d="M1077.02 499.51C1085.77 499.51 1090.14 496.73 1090.14 491.16 1090.14 484.6 1090.84 474.17 1091.63 461.94 1093.42 434.81 1095.71 401.12 1092.13 385.71 1086.76 363.15 1063.31 355.1 1043.23 355.1 1035.58 355.1 1027.73 356.2 1020.67 358.38 998.91 364.94 994.63 382.24 989.76 402.21 989.17 404.8 988.47 407.38 987.87 409.96 986.78 410.16 979.53 411.55 978.93 414.54 978.13 418.41 983.3 423.38 984 424.08 980.32 445.35 983.8 458.66 995.03 465.92 1000.4 469.4 1005.86 471.09 1011.83 471.09 1016.7 471.09 1022.06 469.89 1025.94 468.8L1025.04 486.19 1025.14 486.29C1025.64 486.49 1058.34 499.51 1077.02 499.51Z" fill="#e59763" opacity="1" stroke-width="4" stroke="none"></path><path d="M947.62 547.31C947.92 546.62 978.03 478.64 980.72 473.37 982.01 470.79 983.4 468.1 984.2 465.32 984.49 464.03 984.89 462.44 984.3 461.25 983.4 459.26 980.72 459.96 979.13 460.45 973.76 462.24 969.29 466.12 964.92 469.6 963.23 470.89 961.64 472.28 959.85 473.47 958.46 474.37 956.67 475.46 955.18 474.27 953.19 472.68 954.48 469.79 955.57 468.1 957.26 465.52 959.65 463.43 962.03 461.64 965.71 458.96 969.39 457.17 972.67 455.58 977.44 453.3 980.82 451.71 980.82 448.63 980.82 441.47 966.31 443.66 962.23 444.15 954.08 445.25 945.93 447.43 938.78 451.61 931.42 455.88 925.26 462.14 921.48 469.79 912.24 488.38 910.55 491.56 898.92 512.93L898.63 516.7 947.62 547.71V547.31 547.31Z" fill="#e59763" opacity="1" stroke-width="4" stroke="none"></path><path d="M1121.84 693.11C1122.24 692.91 1165.87 674.73 1172.43 645.01 1175.51 631.29 1173.33 611.62 1166.17 588.16 1160.21 568.38 1150.67 546.52 1140.23 528.03 1121.55 495.24 1093.52 484.8 1091.13 484.01L1091.04 475.96H1025.54L1024.84 483.41C988.87 485 963.82 510.64 963.62 510.84 963.52 510.94 951.7 523.76 943.85 533.6L899.02 512.53 898.92 512.73C885.01 538.07 856.49 599.59 890.77 623.94 898.23 629.21 907.07 631.89 916.91 631.89 948.72 631.89 982.81 604.06 986.18 601.28L996.52 662.4 1109.42 662.5C1114.49 672.54 1118.66 682.08 1121.45 692.91L1121.55 693.11H1121.84Z" fill="#5c7cff" opacity="1" stroke-width="4" stroke="none"></path><path d="M1121.84 693.11C1129.8 689.63 1137.45 685.36 1144.5 680.39L1144.8 680.19 1144.7 680.09C1135.56 671.84 1133.27 660.22 1130.99 649.08 1128.5 636.96 1126.22 625.53 1115.98 618.28L1115.68 618.08 1109.92 661.31 1108.43 662.8C1113.5 672.94 1118.57 682.08 1121.45 693.11L1121.55 693.31 1121.84 693.11Z" fill="#666666" opacity="0.2" stroke-width="4" stroke="none"></path><path d="M1031.4 663.2L1000.6 589.25 986.08 601.28 996.52 662.4 1031.4 663.2Z" fill="#666666" opacity="0.2" stroke-width="4" stroke="none"></path><path d="M1026.53 955.29V955.09C1025.34 939.39 1023.25 923.49 1020.37 907.98L1015.5 893.37 918.2 894.96 920.59 908.18C923.27 917.13 926.26 930.54 926.85 936.21L951.3 980.63 1026.53 955.29Z" fill="#e59763" opacity="1" stroke-width="4" stroke="none"></path><path d="M1026.53 997.93L1029.02 995.04C1029.02 987.49 1028.12 966.92 1027.93 963.64 1027.53 956.68 1026.14 949.82 1025.54 944.16 1001.59 948.13 984.89 954.1 974.66 958.57 965.21 962.64 958.33 967.2 958.46 967.12L962.03 944.85C962.13 944.16 962.23 943.36 962.23 942.67 962.23 935.21 956.17 929.25 948.82 929.25H925.76C927.65 938.59 925.96 949.43 922.58 958.27 919.6 966.02 914.23 972.28 908.27 977.85 907.27 978.74 906.28 979.74 905.19 980.63 900.32 985.11 895.74 989.28 892.36 994.84L892.76 998.72 1026.53 997.93Z" fill="#5c7cff" opacity="1" stroke-width="4" stroke="none"></path><path d="M1020.67 908.48C1012.72 866.94 998.91 826.78 980.02 788.92L1000.6 787.93C1031.11 787.93 1054.26 779.18 1067.58 762.58 1078.51 748.97 1081.99 730.38 1077.52 710.31 1070.66 680.79 1060.23 678.5 1060.23 678.5 1054.96 679.1 930.23 680.99 892.07 726.31 866.43 756.72 889.78 821.42 908.56 873.4 913.24 886.22 917.51 898.24 920.69 908.68L1020.67 908.48Z" fill="#b30000" opacity="1" stroke-width="4" stroke="none"></path><path d="M915.22 890.99C915.32 890.89 929.83 881.74 947.13 846.07 956.47 826.88 970.58 822.91 980.72 822.91 989.46 822.91 996.22 825.89 996.32 825.89L996.72 826.09 996.52 825.59C991.45 812.67 985.89 800.15 979.82 788.22 979.82 788.22 977.34 782.76 973.26 774.91 964.52 758.41 954.48 743.1 940.57 743.1 931.52 743.1 921.88 749.36 910.95 762.38 908.86 764.87 906.88 767.15 904.99 769.24 889.98 786.43 882.43 794.98 894.05 831.65 898.53 845.77 903.5 859.38 908.27 872.8 910.55 879.06 912.74 885.12 914.73 890.89L914.83 891.09 915.22 890.99Z" fill="#000000" opacity="0.2" stroke-width="4" stroke="none"></path><path d="M920.22 963.64L935.5 969.8" stroke="#000000" stroke-width="4" stroke-linecap="round" stroke-linejoin="round" opacity="1" fill="none"></path><path d="M911.52 974.8L923.87 984.11" stroke="#000000" stroke-width="4" stroke-linecap="round" stroke-linejoin="round" opacity="1" fill="none"></path><path d="M920.59 908.38H1020.17" stroke="#000000" stroke-width="4" stroke-linecap="round" stroke-linejoin="round" opacity="1" fill="none"></path><path d="M878.25 953.5L887.4 948.93 887.79 948.63C891.97 937.3 895.35 926.67 898.33 916.03V906.59L810.77 861.37 808.09 872.1C805.5 885.32 803.81 892.68 802.72 895.26L808.09 953.4 878.25 953.5Z" fill="#e59763" opacity="1" stroke-width="4" stroke="none"></path><path d="M898.43 916.03C914.43 856 913.83 827.38 913.73 790.11L1056.95 789.81C1082.19 789.81 1101.07 783.65 1113 771.53 1123.14 761.19 1128.21 746.58 1127.81 728.39 1127.11 690.33 1110.02 661.61 1109.82 661.31H996.32C995.23 661.51 885.01 682.68 855.69 712.09 832.93 735.55 827.37 766.46 819.81 809.19 818.52 816.25 817.23 823.51 815.84 831.16L814.84 836.33C812.46 849.35 810.17 861.57 808.09 871.91L898.43 916.03Z" fill="#b30000" opacity="1" stroke-width="4" stroke="none"></path><path d="M908.17 872.01C914.33 839.51 915.02 818.73 914.93 791.3" stroke="#000000" stroke-width="4" stroke-linecap="round" stroke-linejoin="round" opacity="1" fill="none"></path><path d="M866.92 997.63C870.9 989.38 873.68 982.82 876.17 977.06L876.26 976.86H876.17C877.36 974.27 878.45 971.49 879.54 968.81 882.63 961.35 885.61 954.49 887.89 948.33L887.4 948.13C872.98 941.57 857.68 938.29 841.68 938.29 826.87 938.29 812.92 942.99 813.75 941.97L825.18 925.47C825.68 924.78 826.08 924.08 826.37 923.39 828.16 919.71 828.36 915.44 826.97 911.56 825.58 907.68 822.8 904.5 819.12 902.72L802.72 895.26C802.42 895.86 800.43 899.63 799.74 900.83 789.1 921.8 775.49 925.67 762.37 929.35 756.01 931.14 750.05 932.83 744.58 936.31L744.28 938.49 865.53 998.72 866.92 997.63Z" fill="#5c7cff" opacity="1" stroke-width="4" stroke="none"></path><path d="M858.47 1014.22C861.56 1008.46 864.34 1002.99 867.12 997.33L867.22 997.13 744.68 936.21C735.83 942.17 731.66 951.91 731.66 951.91L858.08 1014.92 858.47 1014.22Z" fill="#000000" opacity="1" stroke-width="4" stroke="none"></path><path d="M783.19 921.2L793.38 933.33" stroke="#000000" stroke-width="4" stroke-linecap="round" stroke-linejoin="round" opacity="1" fill="none"></path><path d="M770.59 927.2L777.28 941.57" stroke="#000000" stroke-width="4" stroke-linecap="round" stroke-linejoin="round" opacity="1" fill="none"></path><path d="M808.29 872.01L898.13 915.83" stroke="#000000" stroke-width="4" stroke-linecap="round" stroke-linejoin="round" opacity="1" fill="none"></path><path d="M1092.72 384.72C1087.26 361.96 1063.61 353.81 1043.33 353.81 1035.58 353.81 1027.63 354.91 1020.57 357.09 1003.58 362.26 994.14 375.62 994.04 385.22 994.04 385.22 998.11 388.4 1004.17 388.4 1008.15 388.4 1012.22 387.01 1012.01 387.22 1014.41 393.96 1015.2 400.82 1018.29 404.4 1020.07 406.59 1022.66 407.68 1026.14 407.68 1031.21 407.68 1036.27 405.19 1035.7 406.11 1036.67 407.38 1032.56 420.32 1041.14 429.25L1041.24 429.34 1041.34 429.25C1041.44 429.15 1054.16 418.71 1065.1 418.71 1069.17 418.71 1072.65 420.2 1075.13 423.18 1077.32 425.77 1078.31 428.95 1078.02 432.33 1077.02 443.36 1063.21 454.89 1063.01 454.99L1062.81 455.18 1063.01 455.38C1071.95 462.44 1091.73 463.04 1091.73 463.04 1091.73 463.04 1097.99 402.51 1092.72 384.72Z" fill="#231f20" opacity="1" stroke-width="4" stroke="none"></path><path d="M992.94 434.21L1002.48 434.51" stroke="#030202" stroke-width="4" stroke-linecap="round" stroke-linejoin="round" opacity="1" fill="none"></path><path d="M999.8 416.33C998.27 416.33 997.02 415.08 997.02 413.54 997.02 412 998.27 410.76 999.8 410.76 1001.34 410.76 1002.58 412 1002.58 413.54 1002.58 415.08 1001.34 416.33 999.8 416.33Z" fill="#231f20" opacity="1" stroke-width="4" stroke="none"></path><path d="M985.79 601.58C992.84 596.11 999.1 589.85 1005.46 583.69" stroke="#666666" stroke-width="4" stroke-linecap="round" stroke-linejoin="round" opacity="1" fill="none"></path><path d="M944.34 532.8L924.96 556.76" stroke="#666666" stroke-width="4" stroke-linecap="round" stroke-linejoin="round" opacity="1" fill="none"></path><path d="M996.52 661.11H1109.82L1119.76 591.54" stroke="#666666" stroke-width="4" stroke-linecap="round" stroke-linejoin="round" opacity="1" fill="none"></path><path d="M980.22 790.11L898.13 790.11" stroke="#000000" stroke-width="4" stroke-linecap="round" stroke-linejoin="round" opacity="1" fill="none"></path><path d="M1025.14 469C1033.09 465.82 1039.06 463.04 1039.06 463.04" stroke="#030202" stroke-width="4" stroke-linecap="round" stroke-linejoin="round" opacity="1" fill="none"></path><path d="M1051.88 443.85L1060.13 437.49" stroke="#030202" stroke-width="4" stroke-linecap="round" stroke-linejoin="round" opacity="1" fill="none"></path><path d="M1028.52 1015.12V1014.92C1028.72 1008.16 1029.02 1001.5 1029.02 995.04L1028.72 994.84 892.27 994.94C891.17 996.93 890.48 998.92 889.68 1001.11 887.99 1005.48 887.3 1010.15 887.3 1014.92V1015.12H1028.52Z" fill="#000000" opacity="1" stroke-width="4" stroke="none"></path></g><g><path d="M953.55 926.93V907.9H1092.4V926.93H953.55Z" fill="#231f20" opacity="1" stroke-width="4" stroke="none"></path><path d="M953.55 926.93V907.9H975.14L966.02 926.93H953.55Z" fill="#000000" opacity="0.2" stroke-width="4" stroke="none"></path><path d="M1079.92 926.93L1070.81 907.9H1092.4V926.93H1079.92Z" fill="#000000" opacity="0.2" stroke-width="4" stroke="none"></path><path d="M926.3 1006.35C926.2 1006.73 926.2 1007.2 926.2 1007.58 926.2 1011.67 929.56 1015 933.69 1015 937.14 1015 940.31 1012.53 940.98 1009.2L987.52 796.62H961.8L926.3 1006.35Z" fill="#231f20" opacity="1" stroke-width="4" stroke="none"></path><path d="M1084.05 796.62H1058.33L1104.97 1009.2C1105.73 1012.62 1108.8 1015 1112.26 1015 1112.64 1015 1113.03 1015 1113.41 1014.91 1115.43 1014.62 1117.15 1013.58 1118.3 1011.96 1119.46 1010.34 1119.93 1008.34 1119.65 1006.44L1084.05 796.62Z" fill="#231f20" opacity="1" stroke-width="4" stroke="none"></path><path d="M963.24 907.9L959.12 926.93" stroke="#000000" stroke-width="4" stroke-linecap="round" stroke-linejoin="round" opacity="1" fill="none"></path><path d="M1082.51 907.9L1086.64 926.93" stroke="#000000" stroke-width="4" stroke-linecap="round" stroke-linejoin="round" opacity="1" fill="none"></path><path d="M961.9 796.62L954.8 838.28H978.5L987.61 796.62H961.9Z" fill="#000000" opacity="0.2" stroke-width="4" stroke="none"></path><path d="M1084.05 796.62H1058.33L1067.45 838.28H1091.15L1084.05 796.62Z" fill="#000000" opacity="0.2" stroke-width="4" stroke="none"></path><path d="M943.09 810.98H1102.95C1109.19 810.98 1114.18 806.04 1114.18 799.85 1114.18 793.67 1109.19 788.73 1102.95 788.73H943.09C936.85 788.73 931.86 793.67 931.86 799.85 931.86 806.04 936.85 810.98 943.09 810.98Z" fill="#3c2c5b" opacity="1" stroke-width="4" stroke="none"></path><path d="M959.4 810.98H984.45" stroke="#3c2c5b" stroke-width="4" stroke-linecap="round" stroke-linejoin="round" opacity="1" fill="none"></path><path d="M1061.5 810.98H1086.54" stroke="#3c2c5b" stroke-width="4" stroke-linecap="round" stroke-linejoin="round" opacity="1" fill="none"></path></g><g><path d="M520.39 678.22V599.73H589.65V678.22H520.39Z" fill="#5c7cff" opacity="1" stroke-width="4" stroke="none"></path><path d="M555.02 620.04C532.21 620.04 521.77 602.26 520.52 599.97 520.51 599.94 520.51 599.91 520.51 599.88 520.51 599.86 520.51 599.83 520.52 599.81 520.54 599.78 520.56 599.76 520.59 599.75 520.61 599.74 520.63 599.73 520.67 599.73H588.99C589.05 599.73 589.13 599.75 589.18 599.78 589.25 599.81 589.29 599.87 589.33 599.92 589.37 599.98 589.38 600.05 589.38 600.11 589.38 600.19 589.37 600.25 589.33 600.32 587.43 603.65 576.93 620.04 555.02 620.04Z" fill="#181f3b" opacity="1" stroke-width="4" stroke="none"></path><path d="M604.24 644.05C611.38 644.05 617.17 638.26 617.17 631.12 617.17 623.99 611.38 618.2 604.24 618.2 597.1 618.2 591.31 623.99 591.31 631.12 591.31 638.26 597.1 644.05 604.24 644.05Z" stroke="#131622" stroke-width="4" stroke-linecap="round" stroke-linejoin="round" opacity="1" fill="none"></path></g><g><path d="M335.31 860.49C330.73 843.43 305.77 838.33 295.5 871.27 286.56 900.01 273.93 904.22 268.17 932.65 262.71 959.83 278.44 999.12 318.76 996.32 361.23 993.36 335.31 860.49 335.31 860.49Z" stroke="#ffffff" stroke-width="4" stroke-linecap="round" stroke-linejoin="round" opacity="1" fill="none"></path><path d="M352.36 787.74L406.91 890.07 311.75 940.8 257.2 838.47 352.36 787.74Z" fill="#b30000" opacity="1" stroke-width="4" stroke="none"></path><path d="M378.96 801.33H378.66C362.27 801.33 348.97 814.63 348.97 831.02V858.72H408.65V831.02C408.65 814.63 395.36 801.33 378.96 801.33Z" stroke="#ffffff" stroke-width="4" stroke-linecap="round" stroke-linejoin="round" opacity="1" fill="none"></path><path d="M378.89 829.18H378.22C335.68 829.18 301.26 863.67 301.26 906.14V997.8C301.26 1007.62 309.24 1015.6 319.06 1015.6H438.05C447.87 1015.6 455.85 1007.62 455.85 997.8V906.22C455.92 863.67 421.43 829.18 378.89 829.18 378.89 829.18 378.96 829.18 378.89 829.18Z" fill="#ad4200" opacity="1" stroke-width="4" stroke="none"></path><path d="M409.39 923.72H347.86C337.89 923.72 329.77 931.85 329.77 941.82V980.59C329.77 990.56 337.89 998.69 347.86 998.69H409.39C419.36 998.69 427.48 990.56 427.48 980.59V941.82C427.48 931.85 419.36 923.72 409.39 923.72Z" fill="#26150a" opacity="0.3" stroke-width="4" stroke="none"></path><path d="M409.14 927.83H347.86C339.38 927.33 337.39 932.75 329.73 943.83V972.47C329.77 982.44 337.89 990.56 347.86 990.56H409.39C419.36 990.56 427.48 982.44 427.48 972.47V943.49C421.59 929.4 418.75 928.32 409.14 927.33Z" fill="#5a0000" opacity="1" stroke-width="4" stroke="none"></path><path d="M409.39 915.6H347.86C337.89 915.6 329.77 923.72 329.77 933.69V943.44H427.48V933.69C427.48 923.72 419.36 915.6 409.39 915.6Z" fill="#b30000" stroke="#272459" stroke-width="4" opacity="1"></path><path d="M427.48 943.44H329.7" stroke="#fcfcfc" stroke-width="4" stroke-linecap="round" stroke-linejoin="round" opacity="1" fill="none"></path><path d="M378.59 892.26C370.43 892.26 363.82 885.64 363.82 877.49 363.82 869.32 370.43 862.71 378.59 862.71 386.74 862.71 393.36 869.32 393.36 877.49 393.36 885.64 386.74 892.26 378.59 892.26Z" fill="#b30000" opacity="1" stroke-width="4" stroke="none"></path></g><g><path d="M1341.73 1015.88L1341.75 1014.09C1341.75 983.28 1341.75 954.18 1303.82 917.48 1302.55 916.25 1301.33 915.09 1300.15 913.98 1299.2 913.07 1298.28 912.2 1297.39 911.35 1279.4 894.28 1271.96 887.21 1259.09 844.17L1258.86 843.33 1258.72 842.87C1247.31 804.92 1242.59 789.21 1218.09 784.55 1216.47 784.22 1214.86 784.17 1213.64 784.17 1204.44 784.17 1195.81 789.26 1191.49 792.3 1188.75 794.2 1185.49 795.2 1182.08 795.2 1180.45 795.2 1178.76 794.97 1177.18 794.51L1154.5 787.85C1153.8 787.64 1153.11 787.54 1152.28 787.54 1148.75 787.54 1145.59 789.94 1144.59 793.38 1144.45 793.89 1144.37 794.33 1144.29 794.92 1143.68 802.15 1144.43 812.46 1151.49 820.52 1156.06 825.7 1161.24 829.06 1165.81 832.03L1165.9 832.09C1171.7 835.88 1176.23 838.84 1176.23 843.49V997.01L1173.19 996.99C1165.91 996.99 1159.99 1002.91 1159.99 1010.19V1015.88H1341.73V1015.88Z" fill="#ad4200" opacity="1" stroke-width="4" stroke="none"></path><path d="M1267.16 868.33L1267.05 868.07C1264.98 862.71 1262.9 856.52 1260.31 848L1260.29 847.93 1176.18 847.91 1176.16 868.33H1267.16V868.33Z" fill="#b30000" opacity="1" stroke-width="4" stroke="none"></path><path d="M1228.81 892.31C1239.55 892.31 1248.29 883.57 1248.29 872.83V811.24C1241.39 794.06 1232.56 787.1 1218.01 784.56 1216.76 784.34 1215.35 784.17 1213.56 784.17 1212.01 784.17 1210.87 784.21 1209.63 784.41L1209.27 784.48 1209.25 872.83C1209.33 883.57 1218.1 892.31 1228.81 892.31Z" fill="#411b04" opacity="1" stroke-width="4" stroke="none"></path><path d="M1176.64 905.39C1181.54 905.39 1185.91 902.48 1187.82 897.88 1189.05 894.89 1189.05 891.6 1187.82 888.61 1186.6 885.62 1184.22 883.32 1181.23 882.02 1179.78 881.41 1178.17 881.1 1176.64 881.1 1171.73 881.1 1167.37 884.01 1165.45 888.61 1164.23 891.6 1164.23 894.89 1165.45 897.88 1166.68 900.87 1169.05 903.17 1172.04 904.47 1173.5 905.08 1175.03 905.39 1176.64 905.39Z" fill="#3c2c5b" opacity="1" stroke-width="4" stroke="none"></path><path d="M1192.88 808.79C1190.89 808.79 1189.28 807.17 1189.28 805.18 1189.28 803.2 1190.89 801.58 1192.88 801.58 1194.87 801.58 1196.48 803.2 1196.48 805.18 1196.48 807.17 1194.87 808.79 1192.88 808.79Z" fill="#5a3a35" opacity="1" stroke-width="4" stroke="none"></path><path d="M1149.65 800.33C1155.45 800.33 1160.17 795.58 1160.17 789.74V789.51L1154.48 787.8C1154.03 787.65 1153.49 787.57 1152.96 787.5L1152.33 787.49C1148.04 787.49 1144.57 790.67 1144.27 794.87 1144.19 796.07 1144.11 797.32 1144.11 798.7V798.82L1144.2 798.87C1145.75 799.8 1147.73 800.33 1149.65 800.33Z" fill="#411b04" opacity="1" stroke-width="4" stroke="none"></path><path d="M1210.34 1015.88L1210.37 1010.19C1210.37 1003.1 1216.13 997.34 1223.21 997.34L1226.59 997.34 1226.61 997.16C1226.61 997.16 1226.6 997.11 1226.6 997.03 1226.26 991.77 1225.32 964.5 1239.7 944.55L1240.01 944.17 1239.53 944.28 1239.44 944.32C1235.98 945.78 1205.57 959.73 1205.5 997.16 1205.36 997.18 1201.69 998.02 1198.17 1001.02 1193.98 1004.58 1191.86 1009.52 1191.86 1015.7V1015.88H1210.34V1015.88Z" fill="#000000" opacity="0.15" stroke-width="4" stroke="none"></path><path d="M1269.72 924.54C1221.07 936.11 1226.43 997.16 1226.43 997.16H1223.21C1216.01 997.16 1210.19 1002.99 1210.19 1010.19V1014.94" stroke="#411b04" stroke-width="4" stroke-linecap="round" stroke-linejoin="round" opacity="1" fill="none"></path></g></svg>